<svg fill="#e9c46a" height="50px" width="50px" version="1.1" id="Capa_1" xmlns="http://www.w3.org/2000/svg" xmlns:xlink="http://www.w3.org/1999/xlink" viewBox="0 0 483.668 483.668" xml:space="preserve"><g id="SVGRepo_bgCarrier" stroke-width="0"></g><g id="SVGRepo_tracerCarrier" stroke-linecap="round" stroke-linejoin="round"></g><g id="SVGRepo_iconCarrier"> <g> <g> <path d="M464.885,267.229l-190.808-64.75l21.489-63.297l11.471,3.887c9.606,3.286,20.099-1.864,23.354-11.503 c3.253-9.669-1.866-20.13-11.535-23.385L158.48,53.733c-9.638-3.286-20.099,1.896-23.354,11.535 c-3.286,9.638,1.864,20.098,11.502,23.384l11.472,3.887L98.849,267.072l-11.44-3.856c-9.638-3.286-20.13,1.864-23.384,11.503 c-3.287,9.638,1.864,20.099,11.535,23.384l160.343,54.45c9.67,3.253,20.13-1.896,23.384-11.535 c3.288-9.638-1.896-20.098-11.534-23.385l-11.439-3.888l20.003-58.904l190.808,64.752c14.442,4.928,30.148-2.814,35.078-17.287 C487.1,287.835,479.325,272.16,464.885,267.229z"></path> </g> <g> <path d="M256.316,380.931H25.028C11.219,380.931,0,392.118,0,405.927c0,13.81,11.219,24.996,25.028,24.996h231.288 c13.809,0,24.998-11.187,24.998-24.996C281.314,392.118,270.125,380.931,256.316,380.931z"></path> </g> </g> </g></svg>