<svg xmlns="http://www.w3.org/2000/svg" xmlns:xlink="http://www.w3.org/1999/xlink" width="500" zoomAndPan="magnify" viewBox="375 374.999991.999991" height="500" preserveAspectRatio="xMidYMid meet" version="1.0"><defs><g/><clipPath id="7a12fd94f6"><path d="M 94 90.566406 L 281 90.566406 L 281 260.816406 L 94 260.816406 Z M 94 90.566406 " clip-rule="nonzero"/></clipPath></defs><g clip-path="url(#7a12fd94f6)"><path fill="#e76f51" d="M 252.925781 252.265625 C 234.230469 250.710938 210.40625 245.019531 195.300781 235.5625 C 197.046875 234.574219 199.46875 233.140625 202.351562 231.230469 C 208.019531 227.488281 216.164062 221.464844 222.78125 214.046875 C 225.640625 210.835938 227.960938 207.207031 229.679688 203.253906 C 231.394531 199.3125 232.472656 195.136719 232.882812 190.855469 C 233.011719 189.472656 233.097656 188.246094 233.125 187.203125 C 233.230469 183.410156 232.558594 179.691406 231.125 176.152344 C 229.753906 172.773438 227.761719 169.71875 225.199219 167.074219 C 222.636719 164.433594 219.652344 162.347656 216.324219 160.882812 C 212.839844 159.347656 209.15625 158.570312 205.375 158.570312 L 205.289062 158.570312 C 198.714844 158.589844 192.394531 160.929688 187.425781 165.175781 C 182.433594 160.910156 176.082031 158.570312 169.46875 158.570312 C 166.636719 158.570312 163.78125 159 160.984375 159.84375 C 156.742188 161.132812 152.835938 163.484375 149.695312 166.652344 C 146.554688 169.816406 144.226562 173.742188 142.957031 178.003906 C 142.480469 179.597656 142.140625 181.4375 141.945312 183.464844 C 140.820312 195.039062 144.847656 206.628906 152.996094 215.261719 C 159.660156 222.328125 167.652344 228.042969 173.179688 231.59375 C 175.804688 233.28125 178.023438 234.578125 179.6875 235.503906 C 164.585938 244.996094 140.703125 250.703125 121.96875 252.265625 L 121.96875 157.269531 L 129.089844 151.171875 L 138.960938 142.722656 L 187.871094 100.847656 L 230.792969 141.089844 L 232.53125 142.722656 L 241.546875 151.171875 L 241.875 151.480469 L 252.925781 161.84375 Z M 188.171875 229.34375 C 188.011719 229.363281 187.839844 229.382812 187.675781 229.402344 C 187.609375 229.40625 187.53125 229.417969 187.449219 229.425781 C 187.367188 229.417969 187.289062 229.40625 187.222656 229.402344 C 187.167969 229.394531 187.117188 229.390625 187.0625 229.382812 C 185.339844 228.550781 181.792969 226.636719 177.417969 223.800781 C 172.460938 220.585938 165.3125 215.441406 159.40625 209.179688 C 153.015625 202.402344 149.851562 193.34375 150.726562 184.324219 C 150.871094 182.859375 151.101562 181.585938 151.414062 180.535156 C 153.160156 174.65625 157.695312 170.089844 163.535156 168.320312 C 165.503906 167.722656 167.5 167.421875 169.46875 167.421875 C 175.910156 167.421875 181.847656 170.667969 185.363281 176.105469 C 185.820312 176.808594 186.589844 177.226562 187.421875 177.226562 C 188.261719 177.226562 189.03125 176.808594 189.488281 176.101562 C 192.984375 170.6875 198.902344 167.441406 205.3125 167.421875 L 205.375 167.421875 C 210.367188 167.421875 215.285156 169.546875 218.871094 173.25 C 222.464844 176.953125 224.441406 181.949219 224.304688 186.957031 C 224.28125 187.796875 224.210938 188.820312 224.097656 190.011719 C 223.460938 196.707031 220.65625 203.148438 216.203125 208.140625 C 210.359375 214.699219 203.097656 220.105469 198.035156 223.484375 C 193.582031 226.457031 189.960938 228.460938 188.171875 229.34375 Z M 187.582031 229.625 C 187.515625 229.59375 187.441406 229.5625 187.359375 229.523438 C 187.390625 229.519531 187.417969 229.515625 187.445312 229.511719 C 187.539062 229.523438 187.632812 229.539062 187.730469 229.558594 C 187.679688 229.582031 187.628906 229.605469 187.582031 229.625 Z M 279.304688 175.011719 L 261.347656 158.175781 L 247.625 145.308594 C 247.632812 145.183594 247.636719 145.054688 247.636719 144.925781 L 247.636719 121.726562 C 247.636719 119.582031 245.902344 117.839844 243.765625 117.839844 L 234.664062 117.839844 C 232.527344 117.839844 230.792969 119.582031 230.792969 121.726562 L 230.792969 129.527344 L 190.875 92.097656 C 189.308594 90.632812 186.898438 90.578125 185.265625 91.972656 L 125.984375 142.722656 L 113.546875 153.371094 L 95.574219 168.757812 C 93.804688 170.269531 93.59375 172.9375 95.105469 174.710938 C 96.613281 176.488281 99.273438 176.699219 101.042969 175.183594 L 113.546875 164.476562 L 113.546875 256.578125 C 113.546875 258.910156 115.433594 260.804688 117.757812 260.804688 L 120.699219 260.804688 C 120.699219 260.804688 121.703125 260.765625 121.96875 260.742188 C 133.667969 259.820312 146.78125 257.355469 158.15625 253.933594 C 165.066406 251.851562 171.34375 249.4375 176.8125 246.75 C 180.789062 244.792969 184.347656 242.683594 187.449219 240.457031 C 188.996094 241.570312 190.660156 242.65625 192.4375 243.707031 C 194.210938 244.753906 196.09375 245.769531 198.085938 246.75 C 203.550781 249.4375 209.828125 251.851562 216.738281 253.933594 C 228.113281 257.355469 241.226562 259.820312 252.925781 260.742188 C 253.191406 260.765625 254.195312 260.804688 254.195312 260.804688 L 257.136719 260.804688 C 259.464844 260.804688 261.347656 258.910156 261.347656 256.578125 L 261.347656 169.738281 L 273.550781 181.183594 C 274.363281 181.945312 275.398438 182.320312 276.425781 182.320312 C 277.550781 182.320312 278.675781 181.871094 279.503906 180.980469 C 281.09375 179.277344 281 176.601562 279.304688 175.011719 " fill-opacity="1" fill-rule="nonzero"/></g><g fill="#e76f51" fill-opacity="1"><g transform="translate(61.38545, 294.657461)"><g><path d="M 7.953125 -25.1875 C 8.984375 -25.1875 9.898438 -25.007812 10.703125 -24.65625 C 11.515625 -24.3125 12.195312 -23.800781 12.75 -23.125 C 13.300781 -22.457031 13.722656 -21.640625 14.015625 -20.671875 C 14.304688 -19.710938 14.453125 -18.617188 14.453125 -17.390625 C 14.453125 -16.867188 14.398438 -16.3125 14.296875 -15.71875 C 14.203125 -15.125 14.046875 -14.539062 13.828125 -13.96875 C 13.609375 -13.394531 13.328125 -12.84375 12.984375 -12.3125 C 12.640625 -11.78125 12.21875 -11.3125 11.71875 -10.90625 C 11.226562 -10.5 10.65625 -10.175781 10 -9.9375 C 9.34375 -9.707031 8.597656 -9.59375 7.765625 -9.59375 L 4.953125 -9.59375 C 4.972656 -8.019531 5.003906 -6.414062 5.046875 -4.78125 C 5.085938 -3.15625 5.160156 -1.5625 5.265625 0 L 1.828125 0 C 1.898438 -1.039062 1.957031 -2.109375 2 -3.203125 C 2.050781 -4.296875 2.085938 -5.378906 2.109375 -6.453125 C 2.128906 -7.535156 2.144531 -8.597656 2.15625 -9.640625 C 2.175781 -10.679688 2.1875 -11.671875 2.1875 -12.609375 C 2.1875 -13.554688 2.175781 -14.546875 2.15625 -15.578125 C 2.144531 -16.617188 2.128906 -17.675781 2.109375 -18.75 C 2.085938 -19.832031 2.050781 -20.914062 2 -22 C 1.957031 -23.082031 1.898438 -24.144531 1.828125 -25.1875 Z M 5.171875 -23.140625 C 5.085938 -21.328125 5.03125 -19.515625 5 -17.703125 C 4.96875 -15.898438 4.953125 -14.203125 4.953125 -12.609375 L 4.953125 -11.625 L 7.765625 -11.625 C 8.867188 -11.625 9.722656 -12.125 10.328125 -13.125 C 10.941406 -14.132812 11.25 -15.554688 11.25 -17.390625 C 11.25 -19.265625 10.960938 -20.691406 10.390625 -21.671875 C 9.816406 -22.648438 8.941406 -23.140625 7.765625 -23.140625 Z M 5.171875 -23.140625 "/></g></g></g><g fill="#e76f51" fill-opacity="1"><g transform="translate(77.194657, 294.657461)"><g><path d="M 11.71875 0 C 11.539062 -1.175781 11.359375 -2.335938 11.171875 -3.484375 C 10.992188 -4.628906 10.816406 -5.78125 10.640625 -6.9375 L 4.671875 -6.9375 C 4.472656 -5.78125 4.285156 -4.628906 4.109375 -3.484375 C 3.929688 -2.335938 3.757812 -1.175781 3.59375 0 L 0.109375 0 C 0.503906 -1.476562 0.890625 -3.003906 1.265625 -4.578125 C 1.640625 -6.148438 2 -7.710938 2.34375 -9.265625 C 2.6875 -10.828125 3.015625 -12.363281 3.328125 -13.875 C 3.640625 -15.382812 3.925781 -16.828125 4.1875 -18.203125 C 4.445312 -19.578125 4.6875 -20.851562 4.90625 -22.03125 C 5.132812 -23.21875 5.328125 -24.269531 5.484375 -25.1875 L 9.828125 -25.1875 C 9.984375 -24.269531 10.171875 -23.21875 10.390625 -22.03125 C 10.609375 -20.851562 10.847656 -19.578125 11.109375 -18.203125 C 11.378906 -16.828125 11.671875 -15.382812 11.984375 -13.875 C 12.296875 -12.363281 12.617188 -10.828125 12.953125 -9.265625 C 13.296875 -7.710938 13.65625 -6.148438 14.03125 -4.578125 C 14.414062 -3.003906 14.804688 -1.476562 15.203125 0 Z M 7.515625 -21.484375 C 7.015625 -19.410156 6.5625 -17.34375 6.15625 -15.28125 C 5.757812 -13.226562 5.378906 -11.160156 5.015625 -9.078125 L 10.265625 -9.078125 C 9.910156 -11.160156 9.523438 -13.226562 9.109375 -15.28125 C 8.703125 -17.34375 8.253906 -19.410156 7.765625 -21.484375 Z M 7.515625 -21.484375 "/></g></g></g><g fill="#e76f51" fill-opacity="1"><g transform="translate(92.948888, 294.657461)"><g><path d="M 7.8125 -25.1875 C 9.875 -25.1875 11.46875 -24.582031 12.59375 -23.375 C 13.726562 -22.164062 14.296875 -20.332031 14.296875 -17.875 C 14.296875 -16.28125 14.019531 -14.96875 13.46875 -13.9375 C 12.925781 -12.90625 12.113281 -12.113281 11.03125 -11.5625 C 11.300781 -10.507812 11.640625 -9.367188 12.046875 -8.140625 C 12.398438 -7.078125 12.84375 -5.847656 13.375 -4.453125 C 13.90625 -3.054688 14.554688 -1.570312 15.328125 0 L 11.453125 0 C 10.910156 -1.820312 10.457031 -3.40625 10.09375 -4.75 C 9.726562 -6.101562 9.441406 -7.238281 9.234375 -8.15625 C 8.992188 -9.21875 8.804688 -10.128906 8.671875 -10.890625 L 4.953125 -10.890625 C 4.953125 -10.035156 4.957031 -9.148438 4.96875 -8.234375 C 4.988281 -7.328125 5.007812 -6.410156 5.03125 -5.484375 C 5.0625 -4.566406 5.09375 -3.640625 5.125 -2.703125 C 5.164062 -1.773438 5.210938 -0.875 5.265625 0 L 1.828125 0 C 1.898438 -1.039062 1.957031 -2.109375 2 -3.203125 C 2.050781 -4.296875 2.085938 -5.378906 2.109375 -6.453125 C 2.128906 -7.535156 2.144531 -8.597656 2.15625 -9.640625 C 2.175781 -10.679688 2.1875 -11.671875 2.1875 -12.609375 C 2.1875 -13.554688 2.175781 -14.546875 2.15625 -15.578125 C 2.144531 -16.617188 2.128906 -17.675781 2.109375 -18.75 C 2.085938 -19.832031 2.050781 -20.914062 2 -22 C 1.957031 -23.082031 1.898438 -24.144531 1.828125 -25.1875 Z M 5.171875 -23.140625 C 5.085938 -21.390625 5.03125 -19.632812 5 -17.875 C 4.96875 -16.125 4.953125 -14.472656 4.953125 -12.921875 L 7.625 -12.921875 C 8.175781 -12.921875 8.664062 -13.003906 9.09375 -13.171875 C 9.519531 -13.347656 9.882812 -13.628906 10.1875 -14.015625 C 10.488281 -14.410156 10.71875 -14.921875 10.875 -15.546875 C 11.03125 -16.179688 11.109375 -16.957031 11.109375 -17.875 C 11.109375 -19.726562 10.816406 -21.066406 10.234375 -21.890625 C 9.660156 -22.722656 8.789062 -23.140625 7.625 -23.140625 Z M 5.171875 -23.140625 "/></g></g></g><g fill="#e76f51" fill-opacity="1"><g transform="translate(108.904718, 294.657461)"><g><path d="M 12.46875 -25.1875 L 12.46875 -23.046875 L 5.171875 -23.046875 C 5.097656 -21.640625 5.046875 -20.234375 5.015625 -18.828125 C 4.984375 -17.429688 4.960938 -16.078125 4.953125 -14.765625 L 11.9375 -14.765625 L 11.9375 -12.609375 L 4.953125 -12.609375 C 4.953125 -11.035156 4.960938 -9.347656 4.984375 -7.546875 C 5.003906 -5.742188 5.0625 -3.941406 5.15625 -2.140625 L 12.578125 -2.140625 L 12.578125 0 L 1.828125 0 C 1.898438 -1.039062 1.957031 -2.109375 2 -3.203125 C 2.050781 -4.296875 2.085938 -5.378906 2.109375 -6.453125 C 2.128906 -7.535156 2.144531 -8.597656 2.15625 -9.640625 C 2.175781 -10.679688 2.1875 -11.671875 2.1875 -12.609375 C 2.1875 -13.554688 2.175781 -14.546875 2.15625 -15.578125 C 2.144531 -16.617188 2.128906 -17.675781 2.109375 -18.75 C 2.085938 -19.832031 2.050781 -20.914062 2 -22 C 1.957031 -23.082031 1.898438 -24.144531 1.828125 -25.1875 Z M 12.46875 -25.1875 "/></g></g></g><g fill="#e76f51" fill-opacity="1"><g transform="translate(123.357675, 294.657461)"><g><path d="M 15.609375 -25.1875 C 15.523438 -24.144531 15.460938 -23.082031 15.421875 -22 C 15.378906 -20.914062 15.347656 -19.832031 15.328125 -18.75 C 15.304688 -17.675781 15.285156 -16.617188 15.265625 -15.578125 C 15.253906 -14.546875 15.25 -13.554688 15.25 -12.609375 C 15.25 -11.671875 15.253906 -10.679688 15.265625 -9.640625 C 15.285156 -8.597656 15.304688 -7.535156 15.328125 -6.453125 C 15.347656 -5.378906 15.375 -4.296875 15.40625 -3.203125 C 15.445312 -2.109375 15.5 -1.039062 15.5625 0 L 12.171875 0 C 11.546875 -1.789062 10.929688 -3.5 10.328125 -5.125 C 9.734375 -6.757812 9.140625 -8.335938 8.546875 -9.859375 C 7.953125 -11.378906 7.363281 -12.863281 6.78125 -14.3125 C 6.195312 -15.757812 5.609375 -17.195312 5.015625 -18.625 L 4.890625 -18.625 C 4.867188 -17.5625 4.859375 -16.523438 4.859375 -15.515625 C 4.867188 -14.503906 4.875 -13.535156 4.875 -12.609375 C 4.875 -11.671875 4.878906 -10.679688 4.890625 -9.640625 C 4.898438 -8.597656 4.914062 -7.535156 4.9375 -6.453125 C 4.96875 -5.378906 5 -4.296875 5.03125 -3.203125 C 5.070312 -2.109375 5.125 -1.039062 5.1875 0 L 1.828125 0 C 1.898438 -1.039062 1.957031 -2.109375 2 -3.203125 C 2.050781 -4.296875 2.085938 -5.378906 2.109375 -6.453125 C 2.128906 -7.535156 2.144531 -8.597656 2.15625 -9.640625 C 2.175781 -10.679688 2.1875 -11.671875 2.1875 -12.609375 C 2.1875 -13.554688 2.175781 -14.546875 2.15625 -15.578125 C 2.144531 -16.617188 2.128906 -17.675781 2.109375 -18.75 C 2.085938 -19.832031 2.050781 -20.914062 2 -22 C 1.957031 -23.082031 1.898438 -24.144531 1.828125 -25.1875 L 5.265625 -25.1875 C 6.492188 -21.59375 7.703125 -18.203125 8.890625 -15.015625 C 10.078125 -11.828125 11.265625 -8.800781 12.453125 -5.9375 L 12.578125 -5.9375 C 12.585938 -6.476562 12.59375 -7.039062 12.59375 -7.625 C 12.59375 -8.207031 12.585938 -8.789062 12.578125 -9.375 C 12.578125 -9.957031 12.570312 -10.519531 12.5625 -11.0625 C 12.5625 -11.613281 12.5625 -12.128906 12.5625 -12.609375 C 12.5625 -13.554688 12.550781 -14.546875 12.53125 -15.578125 C 12.519531 -16.617188 12.503906 -17.675781 12.484375 -18.75 C 12.460938 -19.832031 12.425781 -20.914062 12.375 -22 C 12.332031 -23.082031 12.273438 -24.144531 12.203125 -25.1875 Z M 15.609375 -25.1875 "/></g></g></g><g fill="#e76f51" fill-opacity="1"><g transform="translate(141.237923, 294.657461)"><g><path d="M 0.28125 -25.1875 L 12.828125 -25.1875 L 12.828125 -23.046875 L 8.15625 -23.046875 C 8.0625 -21.242188 8 -19.441406 7.96875 -17.640625 C 7.945312 -15.847656 7.9375 -14.171875 7.9375 -12.609375 C 7.9375 -11.671875 7.941406 -10.679688 7.953125 -9.640625 C 7.960938 -8.597656 7.976562 -7.535156 8 -6.453125 C 8.03125 -5.378906 8.0625 -4.296875 8.09375 -3.203125 C 8.132812 -2.109375 8.1875 -1.039062 8.25 0 L 4.828125 0 C 4.898438 -1.039062 4.957031 -2.109375 5 -3.203125 C 5.039062 -4.296875 5.070312 -5.378906 5.09375 -6.453125 C 5.125 -7.535156 5.144531 -8.597656 5.15625 -9.640625 C 5.164062 -10.679688 5.171875 -11.671875 5.171875 -12.609375 C 5.171875 -14.171875 5.15625 -15.847656 5.125 -17.640625 C 5.09375 -19.441406 5.035156 -21.242188 4.953125 -23.046875 L 0.28125 -23.046875 Z M 0.28125 -25.1875 "/></g></g></g><g fill="#e76f51" fill-opacity="1"><g transform="translate(154.792831, 294.657461)"><g/></g></g><g fill="#e76f51" fill-opacity="1"><g transform="translate(162.574504, 294.657461)"><g><path d="M 15.625 -25.1875 C 15.5625 -24.144531 15.507812 -23.082031 15.46875 -22 C 15.425781 -20.914062 15.390625 -19.832031 15.359375 -18.75 C 15.335938 -17.675781 15.320312 -16.617188 15.3125 -15.578125 C 15.300781 -14.546875 15.296875 -13.554688 15.296875 -12.609375 C 15.296875 -11.671875 15.300781 -10.679688 15.3125 -9.640625 C 15.320312 -8.597656 15.332031 -7.535156 15.34375 -6.453125 C 15.363281 -5.378906 15.390625 -4.296875 15.421875 -3.203125 C 15.460938 -2.109375 15.515625 -1.039062 15.578125 0 L 12.171875 0 C 12.234375 -1.039062 12.285156 -2.109375 12.328125 -3.203125 C 12.367188 -4.296875 12.398438 -5.378906 12.421875 -6.453125 C 12.453125 -7.535156 12.472656 -8.597656 12.484375 -9.640625 C 12.492188 -10.679688 12.5 -11.671875 12.5 -12.609375 L 4.953125 -12.609375 C 4.953125 -11.671875 4.957031 -10.679688 4.96875 -9.640625 C 4.976562 -8.597656 4.992188 -7.535156 5.015625 -6.453125 C 5.046875 -5.378906 5.078125 -4.296875 5.109375 -3.203125 C 5.148438 -2.109375 5.203125 -1.039062 5.265625 0 L 1.828125 0 C 1.898438 -1.039062 1.957031 -2.109375 2 -3.203125 C 2.050781 -4.296875 2.085938 -5.378906 2.109375 -6.453125 C 2.128906 -7.535156 2.144531 -8.597656 2.15625 -9.640625 C 2.175781 -10.679688 2.1875 -11.671875 2.1875 -12.609375 C 2.1875 -13.554688 2.175781 -14.546875 2.15625 -15.578125 C 2.144531 -16.617188 2.128906 -17.675781 2.109375 -18.75 C 2.085938 -19.832031 2.050781 -20.914062 2 -22 C 1.957031 -23.082031 1.898438 -24.144531 1.828125 -25.1875 L 5.296875 -25.1875 C 5.171875 -23.476562 5.085938 -21.726562 5.046875 -19.9375 C 5.003906 -18.144531 4.972656 -16.421875 4.953125 -14.765625 L 12.484375 -14.765625 C 12.472656 -16.421875 12.441406 -18.144531 12.390625 -19.9375 C 12.335938 -21.726562 12.265625 -23.476562 12.171875 -25.1875 Z M 15.625 -25.1875 "/></g></g></g><g fill="#e76f51" fill-opacity="1"><g transform="translate(180.491407, 294.657461)"><g><path d="M 12.46875 -25.1875 L 12.46875 -23.046875 L 5.171875 -23.046875 C 5.097656 -21.640625 5.046875 -20.234375 5.015625 -18.828125 C 4.984375 -17.429688 4.960938 -16.078125 4.953125 -14.765625 L 11.9375 -14.765625 L 11.9375 -12.609375 L 4.953125 -12.609375 C 4.953125 -11.035156 4.960938 -9.347656 4.984375 -7.546875 C 5.003906 -5.742188 5.0625 -3.941406 5.15625 -2.140625 L 12.578125 -2.140625 L 12.578125 0 L 1.828125 0 C 1.898438 -1.039062 1.957031 -2.109375 2 -3.203125 C 2.050781 -4.296875 2.085938 -5.378906 2.109375 -6.453125 C 2.128906 -7.535156 2.144531 -8.597656 2.15625 -9.640625 C 2.175781 -10.679688 2.1875 -11.671875 2.1875 -12.609375 C 2.1875 -13.554688 2.175781 -14.546875 2.15625 -15.578125 C 2.144531 -16.617188 2.128906 -17.675781 2.109375 -18.75 C 2.085938 -19.832031 2.050781 -20.914062 2 -22 C 1.957031 -23.082031 1.898438 -24.144531 1.828125 -25.1875 Z M 12.46875 -25.1875 "/></g></g></g><g fill="#e76f51" fill-opacity="1"><g transform="translate(194.944367, 294.657461)"><g><path d="M 5.296875 -25.1875 C 5.222656 -24.144531 5.164062 -23.082031 5.125 -22 C 5.082031 -20.914062 5.046875 -19.832031 5.015625 -18.75 C 4.992188 -17.675781 4.976562 -16.617188 4.96875 -15.578125 C 4.957031 -14.546875 4.953125 -13.554688 4.953125 -12.609375 C 4.953125 -11.035156 4.960938 -9.347656 4.984375 -7.546875 C 5.003906 -5.742188 5.0625 -3.941406 5.15625 -2.140625 L 12.578125 -2.140625 L 12.578125 0 L 1.828125 0 C 1.898438 -1.039062 1.957031 -2.109375 2 -3.203125 C 2.050781 -4.296875 2.085938 -5.378906 2.109375 -6.453125 C 2.128906 -7.535156 2.144531 -8.597656 2.15625 -9.640625 C 2.175781 -10.679688 2.1875 -11.671875 2.1875 -12.609375 C 2.1875 -13.554688 2.175781 -14.546875 2.15625 -15.578125 C 2.144531 -16.617188 2.128906 -17.675781 2.109375 -18.75 C 2.085938 -19.832031 2.050781 -20.914062 2 -22 C 1.957031 -23.082031 1.898438 -24.144531 1.828125 -25.1875 Z M 5.296875 -25.1875 "/></g></g></g><g fill="#e76f51" fill-opacity="1"><g transform="translate(208.151043, 294.657461)"><g><path d="M 7.953125 -25.1875 C 8.984375 -25.1875 9.898438 -25.007812 10.703125 -24.65625 C 11.515625 -24.3125 12.195312 -23.800781 12.75 -23.125 C 13.300781 -22.457031 13.722656 -21.640625 14.015625 -20.671875 C 14.304688 -19.710938 14.453125 -18.617188 14.453125 -17.390625 C 14.453125 -16.867188 14.398438 -16.3125 14.296875 -15.71875 C 14.203125 -15.125 14.046875 -14.539062 13.828125 -13.96875 C 13.609375 -13.394531 13.328125 -12.84375 12.984375 -12.3125 C 12.640625 -11.78125 12.21875 -11.3125 11.71875 -10.90625 C 11.226562 -10.5 10.65625 -10.175781 10 -9.9375 C 9.34375 -9.707031 8.597656 -9.59375 7.765625 -9.59375 L 4.953125 -9.59375 C 4.972656 -8.019531 5.003906 -6.414062 5.046875 -4.78125 C 5.085938 -3.15625 5.160156 -1.5625 5.265625 0 L 1.828125 0 C 1.898438 -1.039062 1.957031 -2.109375 2 -3.203125 C 2.050781 -4.296875 2.085938 -5.378906 2.109375 -6.453125 C 2.128906 -7.535156 2.144531 -8.597656 2.15625 -9.640625 C 2.175781 -10.679688 2.1875 -11.671875 2.1875 -12.609375 C 2.1875 -13.554688 2.175781 -14.546875 2.15625 -15.578125 C 2.144531 -16.617188 2.128906 -17.675781 2.109375 -18.75 C 2.085938 -19.832031 2.050781 -20.914062 2 -22 C 1.957031 -23.082031 1.898438 -24.144531 1.828125 -25.1875 Z M 5.171875 -23.140625 C 5.085938 -21.328125 5.03125 -19.515625 5 -17.703125 C 4.96875 -15.898438 4.953125 -14.203125 4.953125 -12.609375 L 4.953125 -11.625 L 7.765625 -11.625 C 8.867188 -11.625 9.722656 -12.125 10.328125 -13.125 C 10.941406 -14.132812 11.25 -15.554688 11.25 -17.390625 C 11.25 -19.265625 10.960938 -20.691406 10.390625 -21.671875 C 9.816406 -22.648438 8.941406 -23.140625 7.765625 -23.140625 Z M 5.171875 -23.140625 "/></g></g></g><g fill="#e76f51" fill-opacity="1"><g transform="translate(223.960254, 294.657461)"><g><path d="M 12.46875 -25.1875 L 12.46875 -23.046875 L 5.171875 -23.046875 C 5.097656 -21.640625 5.046875 -20.234375 5.015625 -18.828125 C 4.984375 -17.429688 4.960938 -16.078125 4.953125 -14.765625 L 11.9375 -14.765625 L 11.9375 -12.609375 L 4.953125 -12.609375 C 4.953125 -11.035156 4.960938 -9.347656 4.984375 -7.546875 C 5.003906 -5.742188 5.0625 -3.941406 5.15625 -2.140625 L 12.578125 -2.140625 L 12.578125 0 L 1.828125 0 C 1.898438 -1.039062 1.957031 -2.109375 2 -3.203125 C 2.050781 -4.296875 2.085938 -5.378906 2.109375 -6.453125 C 2.128906 -7.535156 2.144531 -8.597656 2.15625 -9.640625 C 2.175781 -10.679688 2.1875 -11.671875 2.1875 -12.609375 C 2.1875 -13.554688 2.175781 -14.546875 2.15625 -15.578125 C 2.144531 -16.617188 2.128906 -17.675781 2.109375 -18.75 C 2.085938 -19.832031 2.050781 -20.914062 2 -22 C 1.957031 -23.082031 1.898438 -24.144531 1.828125 -25.1875 Z M 12.46875 -25.1875 "/></g></g></g><g fill="#e76f51" fill-opacity="1"><g transform="translate(238.413214, 294.657461)"><g><path d="M 7.8125 -25.1875 C 9.875 -25.1875 11.46875 -24.582031 12.59375 -23.375 C 13.726562 -22.164062 14.296875 -20.332031 14.296875 -17.875 C 14.296875 -16.28125 14.019531 -14.96875 13.46875 -13.9375 C 12.925781 -12.90625 12.113281 -12.113281 11.03125 -11.5625 C 11.300781 -10.507812 11.640625 -9.367188 12.046875 -8.140625 C 12.398438 -7.078125 12.84375 -5.847656 13.375 -4.453125 C 13.90625 -3.054688 14.554688 -1.570312 15.328125 0 L 11.453125 0 C 10.910156 -1.820312 10.457031 -3.40625 10.09375 -4.75 C 9.726562 -6.101562 9.441406 -7.238281 9.234375 -8.15625 C 8.992188 -9.21875 8.804688 -10.128906 8.671875 -10.890625 L 4.953125 -10.890625 C 4.953125 -10.035156 4.957031 -9.148438 4.96875 -8.234375 C 4.988281 -7.328125 5.007812 -6.410156 5.03125 -5.484375 C 5.0625 -4.566406 5.09375 -3.640625 5.125 -2.703125 C 5.164062 -1.773438 5.210938 -0.875 5.265625 0 L 1.828125 0 C 1.898438 -1.039062 1.957031 -2.109375 2 -3.203125 C 2.050781 -4.296875 2.085938 -5.378906 2.109375 -6.453125 C 2.128906 -7.535156 2.144531 -8.597656 2.15625 -9.640625 C 2.175781 -10.679688 2.1875 -11.671875 2.1875 -12.609375 C 2.1875 -13.554688 2.175781 -14.546875 2.15625 -15.578125 C 2.144531 -16.617188 2.128906 -17.675781 2.109375 -18.75 C 2.085938 -19.832031 2.050781 -20.914062 2 -22 C 1.957031 -23.082031 1.898438 -24.144531 1.828125 -25.1875 Z M 5.171875 -23.140625 C 5.085938 -21.390625 5.03125 -19.632812 5 -17.875 C 4.96875 -16.125 4.953125 -14.472656 4.953125 -12.921875 L 7.625 -12.921875 C 8.175781 -12.921875 8.664062 -13.003906 9.09375 -13.171875 C 9.519531 -13.347656 9.882812 -13.628906 10.1875 -14.015625 C 10.488281 -14.410156 10.71875 -14.921875 10.875 -15.546875 C 11.03125 -16.179688 11.109375 -16.957031 11.109375 -17.875 C 11.109375 -19.726562 10.816406 -21.066406 10.234375 -21.890625 C 9.660156 -22.722656 8.789062 -23.140625 7.625 -23.140625 Z M 5.171875 -23.140625 "/></g></g></g><g fill="#e76f51" fill-opacity="1"><g transform="translate(254.369035, 294.657461)"><g/></g></g><g fill="#e76f51" fill-opacity="1"><g transform="translate(262.150696, 294.657461)"><g><path d="M 15.625 -25.1875 C 15.5625 -24.144531 15.507812 -23.082031 15.46875 -22 C 15.425781 -20.914062 15.390625 -19.832031 15.359375 -18.75 C 15.335938 -17.675781 15.320312 -16.617188 15.3125 -15.578125 C 15.300781 -14.546875 15.296875 -13.554688 15.296875 -12.609375 C 15.296875 -11.671875 15.300781 -10.679688 15.3125 -9.640625 C 15.320312 -8.597656 15.332031 -7.535156 15.34375 -6.453125 C 15.363281 -5.378906 15.390625 -4.296875 15.421875 -3.203125 C 15.460938 -2.109375 15.515625 -1.039062 15.578125 0 L 12.171875 0 C 12.234375 -1.039062 12.285156 -2.109375 12.328125 -3.203125 C 12.367188 -4.296875 12.398438 -5.378906 12.421875 -6.453125 C 12.453125 -7.535156 12.472656 -8.597656 12.484375 -9.640625 C 12.492188 -10.679688 12.5 -11.671875 12.5 -12.609375 L 4.953125 -12.609375 C 4.953125 -11.671875 4.957031 -10.679688 4.96875 -9.640625 C 4.976562 -8.597656 4.992188 -7.535156 5.015625 -6.453125 C 5.046875 -5.378906 5.078125 -4.296875 5.109375 -3.203125 C 5.148438 -2.109375 5.203125 -1.039062 5.265625 0 L 1.828125 0 C 1.898438 -1.039062 1.957031 -2.109375 2 -3.203125 C 2.050781 -4.296875 2.085938 -5.378906 2.109375 -6.453125 C 2.128906 -7.535156 2.144531 -8.597656 2.15625 -9.640625 C 2.175781 -10.679688 2.1875 -11.671875 2.1875 -12.609375 C 2.1875 -13.554688 2.175781 -14.546875 2.15625 -15.578125 C 2.144531 -16.617188 2.128906 -17.675781 2.109375 -18.75 C 2.085938 -19.832031 2.050781 -20.914062 2 -22 C 1.957031 -23.082031 1.898438 -24.144531 1.828125 -25.1875 L 5.296875 -25.1875 C 5.171875 -23.476562 5.085938 -21.726562 5.046875 -19.9375 C 5.003906 -18.144531 4.972656 -16.421875 4.953125 -14.765625 L 12.484375 -14.765625 C 12.472656 -16.421875 12.441406 -18.144531 12.390625 -19.9375 C 12.335938 -21.726562 12.265625 -23.476562 12.171875 -25.1875 Z M 15.625 -25.1875 "/></g></g></g><g fill="#e76f51" fill-opacity="1"><g transform="translate(280.067588, 294.657461)"><g><path d="M 8.796875 -1.734375 C 9.484375 -1.734375 10.078125 -1.867188 10.578125 -2.140625 C 11.078125 -2.410156 11.488281 -2.796875 11.8125 -3.296875 C 12.144531 -3.796875 12.394531 -4.410156 12.5625 -5.140625 C 12.726562 -5.867188 12.8125 -6.6875 12.8125 -7.59375 L 12.8125 -13.515625 C 12.8125 -15.367188 12.789062 -17.273438 12.75 -19.234375 C 12.707031 -21.203125 12.617188 -23.1875 12.484375 -25.1875 L 15.9375 -25.1875 C 15.820312 -23.175781 15.738281 -21.1875 15.6875 -19.21875 C 15.632812 -17.25 15.609375 -15.347656 15.609375 -13.515625 L 15.609375 -7.59375 C 15.609375 -6.320312 15.46875 -5.179688 15.1875 -4.171875 C 14.90625 -3.171875 14.484375 -2.320312 13.921875 -1.625 C 13.359375 -0.9375 12.648438 -0.40625 11.796875 -0.03125 C 10.941406 0.34375 9.941406 0.53125 8.796875 0.53125 C 7.648438 0.53125 6.648438 0.34375 5.796875 -0.03125 C 4.953125 -0.40625 4.25 -0.9375 3.6875 -1.625 C 3.125 -2.320312 2.703125 -3.171875 2.421875 -4.171875 C 2.140625 -5.179688 2 -6.320312 2 -7.59375 L 2 -13.515625 C 2 -15.347656 1.96875 -17.25 1.90625 -19.21875 C 1.851562 -21.1875 1.773438 -23.175781 1.671875 -25.1875 L 5.109375 -25.1875 C 4.972656 -23.1875 4.882812 -21.203125 4.84375 -19.234375 C 4.800781 -17.273438 4.78125 -15.367188 4.78125 -13.515625 L 4.78125 -7.59375 C 4.78125 -6.6875 4.859375 -5.867188 5.015625 -5.140625 C 5.179688 -4.410156 5.425781 -3.796875 5.75 -3.296875 C 6.082031 -2.796875 6.5 -2.410156 7 -2.140625 C 7.507812 -1.867188 8.109375 -1.734375 8.796875 -1.734375 Z M 8.796875 -1.734375 "/></g></g></g><g fill="#e76f51" fill-opacity="1"><g transform="translate(298.112769, 294.657461)"><g><path d="M 7.484375 -25.1875 C 8.460938 -25.1875 9.347656 -25.066406 10.140625 -24.828125 C 10.941406 -24.585938 11.628906 -24.21875 12.203125 -23.71875 C 12.785156 -23.226562 13.226562 -22.59375 13.53125 -21.8125 C 13.84375 -21.03125 14 -20.101562 14 -19.03125 C 14 -18.164062 13.90625 -17.40625 13.71875 -16.75 C 13.539062 -16.101562 13.296875 -15.550781 12.984375 -15.09375 C 12.671875 -14.644531 12.3125 -14.285156 11.90625 -14.015625 C 11.507812 -13.742188 11.085938 -13.550781 10.640625 -13.4375 C 11.171875 -13.34375 11.691406 -13.144531 12.203125 -12.84375 C 12.710938 -12.539062 13.160156 -12.125 13.546875 -11.59375 C 13.941406 -11.0625 14.253906 -10.410156 14.484375 -9.640625 C 14.710938 -8.867188 14.828125 -7.972656 14.828125 -6.953125 C 14.828125 -5.867188 14.707031 -4.898438 14.46875 -4.046875 C 14.226562 -3.191406 13.847656 -2.460938 13.328125 -1.859375 C 12.816406 -1.265625 12.144531 -0.804688 11.3125 -0.484375 C 10.488281 -0.160156 9.488281 0 8.3125 0 L 1.828125 0 C 1.898438 -1.039062 1.957031 -2.109375 2 -3.203125 C 2.050781 -4.296875 2.085938 -5.378906 2.109375 -6.453125 C 2.128906 -7.535156 2.144531 -8.597656 2.15625 -9.640625 C 2.175781 -10.679688 2.1875 -11.671875 2.1875 -12.609375 C 2.1875 -13.554688 2.175781 -14.546875 2.15625 -15.578125 C 2.144531 -16.617188 2.128906 -17.675781 2.109375 -18.75 C 2.085938 -19.832031 2.050781 -20.914062 2 -22 C 1.957031 -23.082031 1.898438 -24.144531 1.828125 -25.1875 Z M 4.953125 -12.28125 C 4.953125 -10.726562 4.96875 -9.082031 5 -7.34375 C 5.03125 -5.601562 5.082031 -3.859375 5.15625 -2.109375 L 8.140625 -2.109375 C 8.691406 -2.109375 9.1875 -2.195312 9.625 -2.375 C 10.0625 -2.550781 10.429688 -2.847656 10.734375 -3.265625 C 11.046875 -3.679688 11.28125 -4.222656 11.4375 -4.890625 C 11.59375 -5.554688 11.671875 -6.378906 11.671875 -7.359375 C 11.671875 -8.304688 11.582031 -9.09375 11.40625 -9.71875 C 11.226562 -10.351562 10.976562 -10.859375 10.65625 -11.234375 C 10.332031 -11.617188 9.941406 -11.890625 9.484375 -12.046875 C 9.035156 -12.203125 8.539062 -12.28125 8 -12.28125 Z M 5.171875 -23.09375 C 5.097656 -21.613281 5.046875 -20.128906 5.015625 -18.640625 C 4.984375 -17.160156 4.960938 -15.738281 4.953125 -14.375 L 7.703125 -14.375 C 8.296875 -14.375 8.796875 -14.453125 9.203125 -14.609375 C 9.617188 -14.765625 9.945312 -15.007812 10.1875 -15.34375 C 10.4375 -15.6875 10.613281 -16.117188 10.71875 -16.640625 C 10.832031 -17.171875 10.890625 -17.796875 10.890625 -18.515625 C 10.890625 -19.210938 10.835938 -19.84375 10.734375 -20.40625 C 10.640625 -20.976562 10.46875 -21.460938 10.21875 -21.859375 C 9.976562 -22.253906 9.65625 -22.554688 9.25 -22.765625 C 8.84375 -22.984375 8.328125 -23.09375 7.703125 -23.09375 Z M 5.171875 -23.09375 "/></g></g></g></svg>