<svg xmlns="http://www.w3.org/2000/svg" xmlns:xlink="http://www.w3.org/1999/xlink" width="150" zoomAndPan="magnify" viewBox="0 0 112.5 112.499997" height="150" preserveAspectRatio="xMidYMid meet" version="1.0"><defs><g/><clipPath id="a0108d8aaf"><path d="M 12 41 L 26 41 L 26 62.402344 L 12 62.402344 Z M 12 41 " clip-rule="nonzero"/></clipPath><clipPath id="bf4ff9673e"><path d="M 22 35 L 39 35 L 39 62.402344 L 22 62.402344 Z M 22 35 " clip-rule="nonzero"/></clipPath><clipPath id="6b76e296e0"><path d="M 47 36 L 64 36 L 64 62.402344 L 47 62.402344 Z M 47 36 " clip-rule="nonzero"/></clipPath><clipPath id="070ce2d8f2"><path d="M 73 40 L 89 40 L 89 62.402344 L 73 62.402344 Z M 73 40 " clip-rule="nonzero"/></clipPath><clipPath id="6d12f76413"><path d="M 97 36 L 112.003906 36 L 112.003906 62.402344 L 97 62.402344 Z M 97 36 " clip-rule="nonzero"/></clipPath><clipPath id="942bb44bde"><path d="M 0 27 L 17 27 L 17 62.402344 L 0 62.402344 Z M 0 27 " clip-rule="nonzero"/></clipPath><clipPath id="4e97c9fb2c"><path d="M 38 23 L 55 23 L 55 62.402344 L 38 62.402344 Z M 38 23 " clip-rule="nonzero"/></clipPath><clipPath id="0ea4fb810e"><path d="M 63 27 L 80 27 L 80 62.402344 L 63 62.402344 Z M 63 27 " clip-rule="nonzero"/></clipPath><clipPath id="890fd4cc8f"><path d="M 83 24 L 99 24 L 99 62.402344 L 83 62.402344 Z M 83 24 " clip-rule="nonzero"/></clipPath></defs><g clip-path="url(#a0108d8aaf)"><path fill="#a78066" d="M 13.359375 51.234375 C 13.539062 52.597656 13.335938 52.746094 13.578125 54.460938 C 13.773438 55.878906 14.390625 57.773438 14.441406 58.40625 C 14.460938 58.683594 14.527344 60.066406 14.496094 62.417969 L 19.183594 62.417969 C 19.171875 61.414062 19.179688 60.382812 19.203125 59.316406 C 19.230469 58.097656 19.828125 57.664062 20.429688 57.078125 C 20.980469 56.542969 21.140625 56.375 21.660156 55.816406 C 24.140625 53.140625 25.503906 53.308594 25.664062 52.867188 C 25.878906 52.265625 25.054688 52.15625 24.660156 52.113281 C 23.851562 52.03125 23.269531 52.273438 22.675781 52.777344 C 22.421875 52.996094 21.027344 53.527344 20.757812 53.4375 C 20.511719 53.359375 20.445312 52.507812 20.484375 51.578125 C 20.527344 50.648438 20.808594 49.523438 20.894531 48.300781 C 21 46.742188 21.429688 45.441406 21.386719 43.753906 C 21.367188 43.050781 20.75 42.6875 20.324219 43.449219 C 19.996094 44.035156 19.898438 44.9375 19.789062 45.683594 C 19.710938 46.1875 19.050781 50.210938 18.640625 49.871094 C 18.347656 49.621094 18.632812 47.746094 18.65625 47.402344 C 18.726562 46.382812 18.785156 45.519531 18.785156 44.496094 C 18.785156 43.917969 19.117188 40.996094 17.824219 41.871094 C 17.34375 42.195312 17.308594 43.46875 17.222656 44.207031 C 17.117188 45.140625 17.09375 45.78125 16.992188 47.027344 C 16.949219 47.554688 16.933594 49.464844 16.609375 49.472656 C 16.265625 49.476562 16.394531 47.851562 16.386719 47.535156 C 16.363281 46.519531 16.332031 45.542969 16.351562 44.671875 C 16.375 43.816406 16.320312 41.886719 15.519531 42.1875 C 14.5625 42.546875 14.910156 44.9375 14.855469 45.820312 C 14.78125 47.082031 14.804688 47.636719 14.769531 48.574219 C 14.746094 49.140625 14.683594 50.503906 14.5 49.847656 C 14.339844 49.277344 13.960938 48.078125 13.746094 46.90625 C 13.648438 46.382812 13.203125 44.636719 12.46875 44.6875 C 11.914062 44.722656 12.511719 47.039062 12.605469 47.523438 C 12.832031 48.707031 13.015625 48.640625 13.359375 51.234375 Z M 13.359375 51.234375 " fill-opacity="1" fill-rule="nonzero"/></g><g clip-path="url(#bf4ff9673e)"><path fill="#e8b795" d="M 27.613281 52.3125 C 28.230469 52.976562 28.417969 53.175781 29.066406 53.804688 C 29.78125 54.5 30.484375 55.011719 30.519531 56.453125 C 30.570312 58.542969 30.550781 60.507812 30.488281 62.417969 L 36.136719 62.417969 C 36.007812 58.234375 36.121094 55.789062 36.15625 55.378906 C 36.214844 54.628906 36.941406 52.390625 37.175781 50.710938 C 37.460938 48.679688 37.222656 48.507812 37.433594 46.894531 C 37.839844 43.824219 38.054688 43.902344 38.324219 42.503906 C 38.433594 41.933594 39.144531 39.1875 38.488281 39.148438 C 37.617188 39.089844 37.089844 41.152344 36.976562 41.773438 C 36.722656 43.160156 36.273438 44.578125 36.085938 45.25 C 35.867188 46.03125 35.789062 44.417969 35.765625 43.75 C 35.722656 42.640625 35.75 41.980469 35.664062 40.488281 C 35.601562 39.445312 36.011719 36.617188 34.878906 36.191406 C 33.929688 35.839844 33.867188 38.117188 33.890625 39.128906 C 33.917969 40.164062 33.878906 41.316406 33.851562 42.519531 C 33.839844 42.890625 33.992188 44.816406 33.589844 44.808594 C 33.203125 44.804688 33.1875 42.542969 33.136719 41.917969 C 33.015625 40.441406 32.988281 39.6875 32.859375 38.582031 C 32.761719 37.707031 32.71875 36.203125 32.152344 35.820312 C 30.621094 34.78125 31.015625 38.238281 31.015625 38.921875 C 31.011719 40.132812 31.085938 41.152344 31.167969 42.363281 C 31.195312 42.769531 31.53125 44.988281 31.183594 45.28125 C 30.699219 45.683594 29.917969 40.921875 29.828125 40.324219 C 29.695312 39.445312 29.582031 38.378906 29.195312 37.683594 C 28.691406 36.785156 27.960938 37.210938 27.9375 38.046875 C 27.886719 40.039062 28.394531 41.578125 28.519531 43.425781 C 28.617188 44.867188 28.953125 46.199219 29 47.296875 C 29.050781 48.398438 28.96875 49.40625 28.683594 49.5 C 28.363281 49.605469 26.714844 48.976562 26.410156 48.71875 C 25.710938 48.125 25.019531 47.835938 24.0625 47.933594 C 23.597656 47.980469 22.621094 48.113281 22.878906 48.824219 C 23.066406 49.347656 24.679688 49.148438 27.613281 52.3125 Z M 27.613281 52.3125 " fill-opacity="1" fill-rule="nonzero"/></g><g clip-path="url(#6b76e296e0)"><path fill="#a6837d" d="M 52.710938 53.628906 C 53.328125 54.292969 53.515625 54.496094 54.164062 55.125 C 54.878906 55.820312 55.585938 56.332031 55.617188 57.769531 C 55.65625 59.386719 55.65625 60.921875 55.625 62.417969 L 61.199219 62.417969 C 61.132812 59.039062 61.226562 57.0625 61.253906 56.699219 C 61.3125 55.945312 62.039062 53.707031 62.273438 52.027344 C 62.558594 50 62.320312 49.824219 62.53125 48.214844 C 62.9375 45.140625 63.152344 45.222656 63.421875 43.820312 C 63.53125 43.25 64.242188 40.507812 63.585938 40.464844 C 62.714844 40.410156 62.1875 42.472656 62.074219 43.09375 C 61.820312 44.476562 61.371094 45.894531 61.183594 46.570312 C 60.964844 47.351562 60.890625 45.738281 60.863281 45.066406 C 60.820312 43.957031 60.851562 43.296875 60.761719 41.808594 C 60.699219 40.761719 61.109375 37.933594 59.976562 37.511719 C 59.03125 37.15625 58.964844 39.4375 58.992188 40.449219 C 59.015625 41.480469 58.980469 42.632812 58.949219 43.839844 C 58.941406 44.210938 59.089844 46.136719 58.6875 46.128906 C 58.304688 46.121094 58.285156 43.859375 58.234375 43.238281 C 58.113281 41.761719 58.085938 41.007812 57.960938 39.902344 C 57.859375 39.027344 57.816406 37.523438 57.25 37.136719 C 55.71875 36.101562 56.113281 39.558594 56.113281 40.238281 C 56.113281 41.449219 56.183594 42.472656 56.265625 43.679688 C 56.292969 44.085938 56.632812 46.304688 56.28125 46.597656 C 55.800781 47.003906 55.019531 42.242188 54.925781 41.644531 C 54.792969 40.761719 54.679688 39.695312 54.292969 39.003906 C 53.789062 38.105469 53.058594 38.53125 53.039062 39.367188 C 52.984375 41.359375 53.492188 42.898438 53.617188 44.742188 C 53.71875 46.1875 54.054688 47.519531 54.101562 48.617188 C 54.148438 49.71875 54.070312 50.722656 53.78125 50.820312 C 53.464844 50.925781 51.8125 50.296875 51.507812 50.035156 C 50.808594 49.441406 50.121094 49.15625 49.160156 49.253906 C 48.699219 49.300781 47.71875 49.429688 47.976562 50.144531 C 48.167969 50.667969 49.777344 50.464844 52.710938 53.628906 Z M 52.710938 53.628906 " fill-opacity="1" fill-rule="nonzero"/></g><g clip-path="url(#070ce2d8f2)"><path fill="#e9d1c0" d="M 77.890625 55.601562 C 78.460938 56.214844 78.632812 56.402344 79.238281 56.984375 C 79.898438 57.628906 80.550781 58.105469 80.582031 59.4375 C 80.609375 60.460938 80.613281 61.449219 80.605469 62.417969 L 85.738281 62.417969 C 85.71875 60.09375 85.785156 58.730469 85.804688 58.445312 C 85.859375 57.746094 86.535156 55.671875 86.753906 54.117188 C 87.015625 52.234375 86.796875 52.074219 86.992188 50.582031 C 87.367188 47.734375 87.566406 47.808594 87.816406 46.511719 C 87.917969 45.980469 88.574219 43.4375 87.96875 43.398438 C 87.160156 43.347656 86.671875 45.261719 86.566406 45.835938 C 86.332031 47.117188 85.914062 48.433594 85.742188 49.058594 C 85.539062 49.78125 85.46875 48.285156 85.445312 47.664062 C 85.40625 46.636719 85.433594 46.027344 85.351562 44.644531 C 85.292969 43.675781 85.671875 41.054688 84.625 40.664062 C 83.746094 40.332031 83.6875 42.445312 83.710938 43.386719 C 83.734375 44.34375 83.699219 45.410156 83.671875 46.527344 C 83.664062 46.871094 83.804688 48.65625 83.429688 48.648438 C 83.074219 48.644531 83.054688 46.546875 83.007812 45.96875 C 82.898438 44.601562 82.871094 43.902344 82.753906 42.878906 C 82.660156 42.066406 82.621094 40.671875 82.09375 40.316406 C 80.679688 39.355469 81.042969 42.558594 81.042969 43.191406 C 81.039062 44.3125 81.109375 45.261719 81.183594 46.378906 C 81.210938 46.757812 81.523438 48.8125 81.199219 49.085938 C 80.75 49.460938 80.027344 45.046875 79.945312 44.492188 C 79.820312 43.675781 79.714844 42.6875 79.355469 42.046875 C 78.890625 41.210938 78.210938 41.605469 78.191406 42.378906 C 78.144531 44.226562 78.613281 45.652344 78.730469 47.363281 C 78.820312 48.703125 79.132812 49.9375 79.175781 50.953125 C 79.222656 51.976562 79.148438 52.90625 78.882812 52.996094 C 78.585938 53.09375 77.058594 52.511719 76.777344 52.273438 C 76.125 51.71875 75.488281 51.453125 74.597656 51.546875 C 74.167969 51.589844 73.261719 51.710938 73.503906 52.371094 C 73.675781 52.855469 75.167969 52.667969 77.890625 55.601562 Z M 77.890625 55.601562 " fill-opacity="1" fill-rule="nonzero"/></g><g clip-path="url(#6d12f76413)"><path fill="#e8b795" d="M 98.664062 47.210938 C 98.863281 48.707031 98.640625 48.867188 98.90625 50.753906 C 99.125 52.316406 99.800781 54.398438 99.855469 55.097656 C 99.886719 55.503906 100.003906 58.054688 99.847656 62.417969 L 105.152344 62.417969 C 105.070312 60.394531 105.042969 58.324219 105.09375 56.097656 C 105.125 54.757812 105.78125 54.28125 106.445312 53.636719 C 107.050781 53.046875 107.222656 52.863281 107.796875 52.246094 C 110.527344 49.304688 112.023438 49.488281 112.199219 49.003906 C 112.4375 48.339844 111.53125 48.21875 111.097656 48.175781 C 110.207031 48.082031 109.566406 48.351562 108.914062 48.90625 C 108.632812 49.144531 107.097656 49.730469 106.800781 49.632812 C 106.535156 49.542969 106.460938 48.609375 106.503906 47.585938 C 106.550781 46.5625 106.863281 45.324219 106.953125 43.980469 C 107.070312 42.265625 107.542969 40.835938 107.496094 38.980469 C 107.472656 38.203125 106.792969 37.808594 106.328125 38.644531 C 105.96875 39.289062 105.859375 40.28125 105.738281 41.101562 C 105.652344 41.65625 104.925781 46.082031 104.476562 45.707031 C 104.152344 45.433594 104.464844 43.371094 104.492188 42.992188 C 104.566406 41.871094 104.636719 40.921875 104.632812 39.792969 C 104.632812 39.160156 105 35.945312 103.578125 36.910156 C 103.050781 37.265625 103.011719 38.667969 102.917969 39.480469 C 102.796875 40.507812 102.773438 41.207031 102.660156 42.582031 C 102.613281 43.160156 102.597656 45.261719 102.238281 45.269531 C 101.863281 45.277344 102.003906 43.488281 101.996094 43.140625 C 101.96875 42.019531 101.933594 40.949219 101.957031 39.988281 C 101.980469 39.046875 101.921875 36.929688 101.042969 37.257812 C 99.988281 37.652344 100.371094 40.28125 100.3125 41.253906 C 100.230469 42.636719 100.257812 43.25 100.21875 44.28125 C 100.195312 44.90625 100.125 46.40625 99.921875 45.679688 C 99.746094 45.054688 99.328125 43.734375 99.09375 42.445312 C 98.988281 41.871094 98.496094 39.953125 97.6875 40.003906 C 97.078125 40.042969 97.734375 42.59375 97.835938 43.125 C 98.089844 44.429688 98.289062 44.351562 98.664062 47.210938 Z M 98.664062 47.210938 " fill-opacity="1" fill-rule="nonzero"/></g><g clip-path="url(#942bb44bde)"><path fill="#e6bfb9" d="M 1.78125 38.578125 C 1.992188 40.1875 1.753906 40.363281 2.039062 42.394531 C 2.273438 44.074219 3 46.3125 3.058594 47.0625 C 3.109375 47.695312 3.351562 53.183594 2.601562 62.417969 L 9.214844 62.417969 C 8.855469 57.671875 8.574219 53.300781 8.695312 48.136719 C 8.726562 46.695312 9.433594 46.183594 10.148438 45.488281 C 10.796875 44.859375 10.984375 44.660156 11.601562 43.996094 C 14.535156 40.832031 16.144531 41.03125 16.335938 40.507812 C 16.59375 39.796875 15.613281 39.664062 15.152344 39.617188 C 14.191406 39.519531 13.503906 39.808594 12.804688 40.402344 C 12.5 40.660156 10.851562 41.292969 10.53125 41.183594 C 10.242188 41.089844 10.164062 40.082031 10.210938 38.980469 C 10.261719 37.882812 10.59375 36.550781 10.695312 35.109375 C 10.820312 33.261719 11.328125 31.722656 11.273438 29.730469 C 11.253906 28.894531 10.523438 28.46875 10.019531 29.367188 C 9.632812 30.0625 9.519531 31.128906 9.386719 32.007812 C 9.292969 32.605469 8.511719 37.371094 8.03125 36.964844 C 7.679688 36.671875 8.019531 34.453125 8.046875 34.046875 C 8.128906 32.835938 8.199219 31.816406 8.199219 30.605469 C 8.195312 29.921875 8.59375 26.46875 7.0625 27.503906 C 6.496094 27.886719 6.453125 29.390625 6.351562 30.265625 C 6.226562 31.371094 6.199219 32.125 6.078125 33.601562 C 6.027344 34.226562 6.007812 36.488281 5.625 36.492188 C 5.21875 36.5 5.371094 34.574219 5.363281 34.203125 C 5.332031 33 5.296875 31.847656 5.320312 30.8125 C 5.347656 29.800781 5.28125 27.523438 4.335938 27.875 C 3.203125 28.300781 3.613281 31.128906 3.550781 32.175781 C 3.460938 33.664062 3.492188 34.324219 3.449219 35.433594 C 3.421875 36.101562 3.347656 37.714844 3.128906 36.9375 C 2.941406 36.261719 2.492188 34.84375 2.238281 33.457031 C 2.125 32.839844 1.597656 30.773438 0.726562 30.832031 C 0.0703125 30.871094 0.78125 33.617188 0.890625 34.1875 C 1.160156 35.589844 1.375 35.507812 1.78125 38.578125 Z M 1.78125 38.578125 " fill-opacity="1" fill-rule="nonzero"/></g><g clip-path="url(#4e97c9fb2c)"><path fill="#dd8980" d="M 40.167969 34.773438 C 40.378906 36.382812 40.144531 36.558594 40.425781 38.585938 C 40.664062 40.265625 41.390625 42.503906 41.449219 43.257812 C 41.503906 43.972656 41.808594 50.894531 40.640625 62.414062 L 47.890625 62.414062 C 47.421875 56.09375 46.929688 50.839844 47.082031 44.332031 C 47.117188 42.890625 47.820312 42.378906 48.535156 41.683594 C 49.1875 41.054688 49.375 40.851562 49.988281 40.191406 C 52.925781 37.023438 54.535156 37.226562 54.722656 36.703125 C 54.980469 35.992188 54.003906 35.859375 53.539062 35.8125 C 52.582031 35.714844 51.890625 36 51.191406 36.597656 C 50.886719 36.855469 49.238281 37.484375 48.917969 37.378906 C 48.632812 37.285156 48.550781 36.277344 48.601562 35.175781 C 48.648438 34.078125 48.984375 32.746094 49.082031 31.304688 C 49.210938 29.457031 49.714844 27.917969 49.664062 25.925781 C 49.640625 25.089844 48.910156 24.664062 48.410156 25.5625 C 48.023438 26.257812 47.90625 27.320312 47.773438 28.203125 C 47.683594 28.800781 46.902344 33.5625 46.417969 33.15625 C 46.070312 32.863281 46.40625 30.644531 46.433594 30.238281 C 46.515625 29.03125 46.589844 28.011719 46.589844 26.800781 C 46.585938 26.117188 46.980469 22.660156 45.453125 23.695312 C 44.882812 24.082031 44.839844 25.585938 44.742188 26.460938 C 44.613281 27.566406 44.585938 28.320312 44.46875 29.796875 C 44.417969 30.417969 44.398438 32.679688 44.011719 32.6875 C 43.609375 32.695312 43.761719 30.769531 43.753906 30.398438 C 43.722656 29.191406 43.683594 28.042969 43.710938 27.007812 C 43.734375 25.996094 43.671875 23.714844 42.722656 24.070312 C 41.59375 24.492188 42.003906 27.324219 41.941406 28.367188 C 41.851562 29.859375 41.882812 30.519531 41.839844 31.625 C 41.8125 32.296875 41.738281 33.910156 41.519531 33.128906 C 41.328125 32.457031 40.882812 31.035156 40.628906 29.652344 C 40.515625 29.03125 39.984375 26.96875 39.117188 27.023438 C 38.460938 27.066406 39.167969 29.808594 39.277344 30.378906 C 39.546875 31.78125 39.765625 31.703125 40.167969 34.773438 Z M 40.167969 34.773438 " fill-opacity="1" fill-rule="nonzero"/></g><g clip-path="url(#0ea4fb810e)"><path fill="#f0b4a9" d="M 65.042969 38.671875 C 65.253906 40.28125 65.015625 40.457031 65.300781 42.484375 C 65.535156 44.164062 66.261719 46.402344 66.320312 47.15625 C 66.371094 47.785156 66.613281 53.238281 65.871094 62.417969 L 72.46875 62.417969 C 72.117188 57.710938 71.835938 53.359375 71.957031 48.230469 C 71.988281 46.789062 72.695312 46.277344 73.410156 45.582031 C 74.058594 44.953125 74.246094 44.75 74.863281 44.089844 C 77.796875 40.921875 79.40625 41.125 79.597656 40.601562 C 79.855469 39.890625 78.878906 39.757812 78.414062 39.710938 C 77.453125 39.613281 76.765625 39.898438 76.066406 40.496094 C 75.761719 40.753906 74.113281 41.382812 73.792969 41.277344 C 73.503906 41.183594 73.425781 40.175781 73.472656 39.074219 C 73.523438 37.976562 73.855469 36.644531 73.957031 35.203125 C 74.082031 33.355469 74.589844 31.816406 74.535156 29.824219 C 74.515625 28.988281 73.785156 28.5625 73.28125 29.460938 C 72.894531 30.15625 72.78125 31.21875 72.648438 32.101562 C 72.558594 32.699219 71.777344 37.460938 71.292969 37.054688 C 70.941406 36.761719 71.28125 34.542969 71.308594 34.136719 C 71.390625 32.929688 71.464844 31.910156 71.460938 30.699219 C 71.460938 30.015625 71.855469 26.558594 70.324219 27.59375 C 69.757812 27.980469 69.714844 29.484375 69.613281 30.359375 C 69.488281 31.464844 69.460938 32.21875 69.339844 33.695312 C 69.289062 34.316406 69.269531 36.578125 68.886719 36.585938 C 68.484375 36.59375 68.632812 34.667969 68.625 34.296875 C 68.597656 33.089844 68.558594 31.941406 68.582031 30.90625 C 68.609375 29.894531 68.542969 27.613281 67.597656 27.96875 C 66.464844 28.390625 66.875 31.222656 66.8125 32.265625 C 66.722656 33.757812 66.753906 34.417969 66.710938 35.523438 C 66.6875 36.195312 66.609375 37.808594 66.390625 37.027344 C 66.203125 36.355469 65.753906 34.933594 65.5 33.550781 C 65.386719 32.929688 64.859375 30.867188 63.988281 30.921875 C 63.332031 30.964844 64.042969 33.707031 64.152344 34.277344 C 64.421875 35.679688 64.636719 35.597656 65.042969 38.671875 Z M 65.042969 38.671875 " fill-opacity="1" fill-rule="nonzero"/></g><g clip-path="url(#890fd4cc8f)"><path fill="#a78066" d="M 87.894531 40.886719 C 88.492188 41.527344 88.671875 41.71875 89.300781 42.328125 C 89.992188 43 90.671875 43.496094 90.703125 44.886719 C 90.851562 51.195312 90.375 56.285156 89.921875 62.417969 L 96.933594 62.417969 C 95.800781 51.25 96.09375 44.542969 96.148438 43.847656 C 96.207031 43.125 96.910156 40.960938 97.136719 39.335938 C 97.410156 37.375 97.183594 37.207031 97.386719 35.652344 C 97.777344 32.679688 97.988281 32.757812 98.246094 31.40625 C 98.355469 30.851562 99.039062 28.203125 98.402344 28.160156 C 97.5625 28.105469 97.050781 30.101562 96.941406 30.699219 C 96.699219 32.039062 96.265625 33.410156 96.082031 34.0625 C 95.871094 34.816406 95.796875 33.257812 95.773438 32.609375 C 95.730469 31.539062 95.761719 30.898438 95.675781 29.460938 C 95.613281 28.449219 96.011719 25.714844 94.917969 25.304688 C 94 24.964844 93.9375 27.167969 93.964844 28.144531 C 93.988281 29.144531 93.953125 30.257812 93.921875 31.421875 C 93.914062 31.78125 94.0625 33.640625 93.671875 33.632812 C 93.300781 33.628906 93.28125 31.441406 93.234375 30.839844 C 93.117188 29.414062 93.089844 28.683594 92.96875 27.617188 C 92.871094 26.769531 92.828125 25.316406 92.28125 24.945312 C 90.800781 23.945312 91.183594 27.285156 91.183594 27.945312 C 91.179688 29.113281 91.25 30.101562 91.332031 31.269531 C 91.355469 31.660156 91.683594 33.804688 91.34375 34.089844 C 90.878906 34.480469 90.125 29.878906 90.035156 29.300781 C 89.90625 28.449219 89.796875 27.417969 89.421875 26.75 C 88.9375 25.878906 88.230469 26.289062 88.210938 27.097656 C 88.160156 29.023438 88.648438 30.511719 88.773438 32.296875 C 88.867188 33.691406 89.191406 34.976562 89.238281 36.039062 C 89.285156 37.105469 89.207031 38.074219 88.929688 38.167969 C 88.621094 38.269531 87.027344 37.660156 86.734375 37.414062 C 86.054688 36.835938 85.390625 36.558594 84.464844 36.65625 C 84.015625 36.699219 83.070312 36.828125 83.320312 37.515625 C 83.503906 38.019531 85.058594 37.828125 87.894531 40.886719 Z M 87.894531 40.886719 " fill-opacity="1" fill-rule="nonzero"/></g><path fill="#661f37" d="M 19.125 51.550781 C 18.5625 51.457031 18.300781 51.65625 18.300781 51.648438 C 18.421875 51.3125 18.75 51.140625 19.160156 51.222656 C 19.574219 51.300781 19.761719 51.625 19.792969 51.941406 C 19.792969 51.945312 19.621094 51.636719 19.125 51.550781 Z M 19.125 51.550781 " fill-opacity="1" fill-rule="nonzero"/><path fill="#661f37" d="M 15.660156 51.320312 C 16.222656 51.226562 16.484375 51.421875 16.480469 51.417969 C 16.363281 51.082031 16.035156 50.90625 15.621094 50.988281 C 15.210938 51.070312 15.019531 51.394531 14.992188 51.710938 C 14.992188 51.714844 15.160156 51.40625 15.660156 51.320312 Z M 15.660156 51.320312 " fill-opacity="1" fill-rule="nonzero"/><path fill="#e9d1c0" d="M 16.996094 56.003906 C 18.46875 55.996094 19.589844 54.171875 19.671875 53 C 19.328125 53.472656 18.738281 54.214844 17.496094 54.273438 C 16.355469 54.328125 15.117188 53.242188 14.59375 52.589844 C 14.59375 52.589844 14.597656 56.011719 16.996094 56.003906 Z M 16.996094 56.003906 " fill-opacity="1" fill-rule="nonzero"/><path fill="#661f37" d="M 81.332031 51.019531 C 81.894531 51.078125 82.089844 51.335938 82.089844 51.328125 C 82.066406 50.976562 81.789062 50.636719 81.378906 50.605469 C 80.964844 50.574219 80.710938 50.921875 80.597656 51.214844 C 80.59375 51.21875 80.839844 50.96875 81.332031 51.019531 Z M 81.332031 51.019531 " fill-opacity="1" fill-rule="nonzero"/><path fill="#661f37" d="M 84.847656 51.484375 C 84.3125 51.3125 84.027344 51.46875 84.03125 51.464844 C 84.195312 51.152344 84.558594 50.949219 84.949219 51.085938 C 85.339844 51.222656 85.460938 51.644531 85.445312 51.957031 C 85.445312 51.960938 85.320312 51.636719 84.847656 51.484375 Z M 84.847656 51.484375 " fill-opacity="1" fill-rule="nonzero"/><path fill="#d03d86" d="M 82.726562 55.835938 C 84.175781 55.894531 85.207031 53.84375 85.339844 52.691406 C 84.980469 53.144531 84.003906 53.886719 82.78125 53.890625 C 81.652344 53.898438 80.84375 52.742188 80.359375 52.078125 C 80.359375 52.078125 80.367188 55.746094 82.726562 55.835938 Z M 82.726562 55.835938 " fill-opacity="1" fill-rule="nonzero"/><path fill="#661f37" d="M 71.191406 38.914062 C 70.570312 38.902344 70.316406 39.164062 70.316406 39.15625 C 70.390625 38.769531 70.714844 38.417969 71.171875 38.4375 C 71.796875 38.46875 71.890625 38.886719 71.976562 39.226562 C 71.976562 39.230469 71.742188 38.925781 71.191406 38.914062 Z M 71.191406 38.914062 " fill-opacity="1" fill-rule="nonzero"/><path fill="#661f37" d="M 67.125 39.246094 C 67.742188 39.148438 68.027344 39.371094 68.023438 39.363281 C 67.898438 38.992188 67.75 38.597656 66.933594 38.726562 C 66.480469 38.800781 66.425781 39.316406 66.390625 39.660156 C 66.390625 39.664062 66.582031 39.328125 67.125 39.246094 Z M 67.125 39.246094 " fill-opacity="1" fill-rule="nonzero"/><path fill="#cb4062" d="M 69.214844 43.566406 C 67.179688 43.890625 66.386719 41.53125 66.3125 40.25 C 66.683594 40.773438 67.484375 41.511719 68.835938 41.597656 C 70.082031 41.675781 71.285156 40.589844 71.867188 39.886719 C 71.867188 39.886719 72.0625 43.109375 69.214844 43.566406 Z M 69.214844 43.566406 " fill-opacity="1" fill-rule="nonzero"/><path fill="#661f37" d="M 59.535156 48.296875 C 58.917969 48.34375 58.695312 48.617188 58.695312 48.609375 C 58.734375 48.226562 59.03125 47.960938 59.484375 47.941406 C 59.9375 47.917969 60.222656 48.207031 60.335938 48.535156 C 60.335938 48.539062 60.078125 48.257812 59.535156 48.296875 Z M 59.535156 48.296875 " fill-opacity="1" fill-rule="nonzero"/><path fill="#661f37" d="M 56.054688 48.449219 C 56.667969 48.390625 56.9375 48.625 56.933594 48.617188 C 56.832031 48.246094 56.492188 48.035156 56.039062 48.089844 C 55.589844 48.144531 55.359375 48.480469 55.300781 48.816406 C 55.300781 48.824219 55.511719 48.5 56.054688 48.449219 Z M 56.054688 48.449219 " fill-opacity="1" fill-rule="nonzero"/><path fill="#f4b6b7" d="M 57.710938 53.140625 C 56.121094 53.019531 55.316406 51.105469 55.3125 49.835938 C 55.648438 50.375 56.230469 51.21875 57.5625 51.382812 C 58.789062 51.53125 60.207031 50.453125 60.824219 49.792969 C 60.824219 49.792969 60.292969 53.335938 57.710938 53.140625 Z M 57.710938 53.140625 " fill-opacity="1" fill-rule="nonzero"/><path fill="#661f37" d="M 46.652344 35.488281 C 46.042969 35.386719 45.757812 35.601562 45.757812 35.59375 C 45.890625 35.230469 46.246094 35.042969 46.691406 35.128906 C 47.136719 35.21875 47.34375 35.570312 47.378906 35.914062 C 47.378906 35.917969 47.191406 35.582031 46.652344 35.488281 Z M 46.652344 35.488281 " fill-opacity="1" fill-rule="nonzero"/><path fill="#661f37" d="M 42.585938 35.238281 C 43.195312 35.132812 43.480469 35.347656 43.480469 35.34375 C 43.347656 34.976562 42.992188 34.789062 42.546875 34.878906 C 42.101562 34.964844 41.894531 35.316406 41.859375 35.660156 C 41.859375 35.664062 42.046875 35.328125 42.585938 35.238281 Z M 42.585938 35.238281 " fill-opacity="1" fill-rule="nonzero"/><path fill="#f3e5db" d="M 44.339844 40.015625 C 45.941406 40.007812 47.15625 38.027344 47.246094 36.753906 C 46.875 37.269531 46.230469 38.074219 44.886719 38.140625 C 43.648438 38.199219 42.304688 37.019531 41.738281 36.3125 C 41.738281 36.3125 41.738281 40.023438 44.339844 40.015625 Z M 44.339844 40.015625 " fill-opacity="1" fill-rule="nonzero"/><path fill="#661f37" d="M 104.152344 47.207031 C 103.582031 47.246094 103.371094 47.503906 103.371094 47.496094 C 103.410156 47.136719 103.675781 46.789062 104.097656 46.773438 C 104.667969 46.75 104.789062 47.128906 104.894531 47.429688 C 104.894531 47.433594 104.65625 47.171875 104.152344 47.207031 Z M 104.152344 47.207031 " fill-opacity="1" fill-rule="nonzero"/><path fill="#661f37" d="M 101.023438 47.828125 C 101.578125 47.691406 101.855469 47.871094 101.851562 47.867188 C 101.710938 47.539062 101.488281 47.230469 100.753906 47.414062 C 100.347656 47.515625 100.390625 47.945312 100.382812 48.265625 C 100.382812 48.269531 100.53125 47.949219 101.023438 47.828125 Z M 101.023438 47.828125 " fill-opacity="1" fill-rule="nonzero"/><path fill="#cb4062" d="M 102.875 51.792969 C 101.402344 51.890625 100.410156 50.242188 100.242188 49.078125 C 100.621094 49.527344 101.265625 50.226562 102.507812 50.199219 C 103.652344 50.171875 104.8125 48.996094 105.289062 48.308594 C 105.289062 48.308594 105.273438 51.628906 102.875 51.792969 Z M 102.875 51.792969 " fill-opacity="1" fill-rule="nonzero"/><path fill="#661f37" d="M 8.105469 39.375 C 7.457031 39.25 7.148438 39.472656 7.148438 39.46875 C 7.296875 39.078125 7.722656 38.792969 8.195312 38.894531 C 8.671875 39 8.84375 39.476562 8.871094 39.84375 C 8.871094 39.847656 8.679688 39.484375 8.105469 39.375 Z M 8.105469 39.375 " fill-opacity="1" fill-rule="nonzero"/><path fill="#661f37" d="M 4.21875 39.253906 C 4.878906 39.242188 5.144531 39.515625 5.144531 39.507812 C 5.066406 39.101562 4.722656 38.75 4.238281 38.773438 C 3.75 38.792969 3.472656 39.226562 3.382812 39.585938 C 3.382812 39.589844 3.632812 39.265625 4.21875 39.253906 Z M 4.21875 39.253906 " fill-opacity="1" fill-rule="nonzero"/><path fill="#cb4062" d="M 5.222656 43.988281 C 3.535156 43.726562 2.835938 41.617188 2.941406 40.261719 C 3.253906 40.863281 3.535156 41.972656 4.941406 42.253906 C 6.242188 42.515625 8.117188 41.328125 8.828125 40.671875 C 8.828125 40.671875 7.964844 44.414062 5.222656 43.988281 Z M 5.222656 43.988281 " fill-opacity="1" fill-rule="nonzero"/><path fill="#661f37" d="M 34.933594 47.761719 C 34.3125 47.6875 34.035156 47.917969 34.039062 47.910156 C 34.152344 47.539062 34.507812 47.21875 34.964844 47.285156 C 35.582031 47.378906 35.632812 47.808594 35.683594 48.15625 C 35.683594 48.160156 35.480469 47.828125 34.933594 47.761719 Z M 34.933594 47.761719 " fill-opacity="1" fill-rule="nonzero"/><path fill="#661f37" d="M 31.449219 47.789062 C 32.074219 47.757812 32.335938 48.007812 32.332031 48 C 32.246094 47.617188 32.070312 47.242188 31.246094 47.289062 C 30.789062 47.3125 30.746094 47.785156 30.671875 48.125 C 30.671875 48.128906 30.898438 47.816406 31.449219 47.789062 Z M 31.449219 47.789062 " fill-opacity="1" fill-rule="nonzero"/><path fill="#cb4062" d="M 32.621094 52.421875 C 31.019531 52.226562 30.292969 50.253906 30.355469 48.96875 C 30.667969 49.527344 31.214844 50.410156 32.554688 50.632812 C 33.789062 50.839844 35.273438 49.816406 35.925781 49.179688 C 35.925781 49.179688 35.226562 52.738281 32.621094 52.421875 Z M 32.621094 52.421875 " fill-opacity="1" fill-rule="nonzero"/><path fill="#661f37" d="M 95.4375 35.925781 C 94.839844 35.824219 94.558594 36.035156 94.5625 36.027344 C 94.691406 35.671875 95.039062 35.488281 95.476562 35.574219 C 95.914062 35.660156 96.117188 36.003906 96.148438 36.339844 C 96.148438 36.34375 95.964844 36.015625 95.4375 35.925781 Z M 95.4375 35.925781 " fill-opacity="1" fill-rule="nonzero"/><path fill="#661f37" d="M 91.753906 35.679688 C 92.351562 35.578125 92.632812 35.789062 92.628906 35.78125 C 92.503906 35.421875 92.152344 35.242188 91.714844 35.328125 C 91.277344 35.414062 91.078125 35.757812 91.042969 36.09375 C 91.042969 36.097656 91.226562 35.769531 91.753906 35.679688 Z M 91.753906 35.679688 " fill-opacity="1" fill-rule="nonzero"/><path fill="#e7dbc0" d="M 93.175781 40.65625 C 94.738281 40.648438 95.929688 38.707031 96.019531 37.464844 C 95.65625 37.96875 95.023438 38.753906 93.707031 38.820312 C 92.496094 38.878906 91.179688 37.722656 90.625 37.027344 C 90.625 37.027344 90.628906 40.664062 93.175781 40.65625 Z M 93.175781 40.65625 " fill-opacity="1" fill-rule="nonzero"/><g fill="#e76f51" fill-opacity="1"><g transform="translate(0.813845, 75.917266)"><g><path d="M 3.5 -11.0625 C 3.945312 -11.0625 4.347656 -10.984375 4.703125 -10.828125 C 5.054688 -10.679688 5.351562 -10.457031 5.59375 -10.15625 C 5.84375 -9.863281 6.03125 -9.503906 6.15625 -9.078125 C 6.28125 -8.660156 6.34375 -8.179688 6.34375 -7.640625 C 6.34375 -7.410156 6.320312 -7.164062 6.28125 -6.90625 C 6.238281 -6.644531 6.171875 -6.390625 6.078125 -6.140625 C 5.984375 -5.890625 5.859375 -5.644531 5.703125 -5.40625 C 5.554688 -5.175781 5.375 -4.972656 5.15625 -4.796875 C 4.9375 -4.617188 4.679688 -4.476562 4.390625 -4.375 C 4.109375 -4.269531 3.785156 -4.21875 3.421875 -4.21875 L 2.171875 -4.21875 C 2.179688 -3.53125 2.195312 -2.828125 2.21875 -2.109375 C 2.238281 -1.390625 2.269531 -0.6875 2.3125 0 L 0.8125 0 C 0.84375 -0.457031 0.863281 -0.925781 0.875 -1.40625 C 0.894531 -1.882812 0.910156 -2.359375 0.921875 -2.828125 C 0.929688 -3.304688 0.9375 -3.773438 0.9375 -4.234375 C 0.945312 -4.691406 0.953125 -5.128906 0.953125 -5.546875 C 0.953125 -5.953125 0.945312 -6.382812 0.9375 -6.84375 C 0.9375 -7.300781 0.929688 -7.765625 0.921875 -8.234375 C 0.910156 -8.710938 0.894531 -9.191406 0.875 -9.671875 C 0.863281 -10.148438 0.84375 -10.613281 0.8125 -11.0625 Z M 2.265625 -10.171875 C 2.234375 -9.367188 2.207031 -8.570312 2.1875 -7.78125 C 2.175781 -6.988281 2.171875 -6.242188 2.171875 -5.546875 L 2.171875 -5.109375 L 3.421875 -5.109375 C 3.898438 -5.109375 4.273438 -5.328125 4.546875 -5.765625 C 4.816406 -6.210938 4.953125 -6.835938 4.953125 -7.640625 C 4.953125 -8.460938 4.820312 -9.085938 4.5625 -9.515625 C 4.3125 -9.953125 3.929688 -10.171875 3.421875 -10.171875 Z M 2.265625 -10.171875 "/></g></g></g><g fill="#e76f51" fill-opacity="1"><g transform="translate(7.763309, 75.917266)"><g><path d="M 5.140625 0 C 5.066406 -0.519531 4.988281 -1.03125 4.90625 -1.53125 C 4.832031 -2.03125 4.753906 -2.535156 4.671875 -3.046875 L 2.046875 -3.046875 C 1.960938 -2.535156 1.878906 -2.03125 1.796875 -1.53125 C 1.722656 -1.03125 1.648438 -0.519531 1.578125 0 L 0.046875 0 C 0.222656 -0.644531 0.394531 -1.3125 0.5625 -2 C 0.726562 -2.695312 0.882812 -3.382812 1.03125 -4.0625 C 1.175781 -4.75 1.316406 -5.425781 1.453125 -6.09375 C 1.597656 -6.757812 1.726562 -7.394531 1.84375 -8 C 1.957031 -8.601562 2.0625 -9.164062 2.15625 -9.6875 C 2.25 -10.207031 2.332031 -10.664062 2.40625 -11.0625 L 4.3125 -11.0625 C 4.382812 -10.664062 4.46875 -10.207031 4.5625 -9.6875 C 4.664062 -9.164062 4.773438 -8.601562 4.890625 -8 C 5.003906 -7.394531 5.128906 -6.757812 5.265625 -6.09375 C 5.398438 -5.425781 5.539062 -4.75 5.6875 -4.0625 C 5.84375 -3.382812 6.003906 -2.695312 6.171875 -2 C 6.335938 -1.3125 6.503906 -0.644531 6.671875 0 Z M 3.296875 -9.4375 C 3.078125 -8.53125 2.878906 -7.625 2.703125 -6.71875 C 2.523438 -5.8125 2.359375 -4.898438 2.203125 -3.984375 L 4.515625 -3.984375 C 4.359375 -4.898438 4.1875 -5.8125 4 -6.71875 C 3.820312 -7.625 3.628906 -8.53125 3.421875 -9.4375 Z M 3.296875 -9.4375 "/></g></g></g><g fill="#e76f51" fill-opacity="1"><g transform="translate(14.688604, 75.917266)"><g><path d="M 3.4375 -11.0625 C 4.34375 -11.0625 5.039062 -10.796875 5.53125 -10.265625 C 6.03125 -9.734375 6.28125 -8.929688 6.28125 -7.859375 C 6.28125 -7.160156 6.160156 -6.582031 5.921875 -6.125 C 5.679688 -5.675781 5.320312 -5.328125 4.84375 -5.078125 C 4.96875 -4.617188 5.117188 -4.117188 5.296875 -3.578125 C 5.453125 -3.109375 5.644531 -2.566406 5.875 -1.953125 C 6.113281 -1.347656 6.398438 -0.695312 6.734375 0 L 5.03125 0 C 4.789062 -0.800781 4.59375 -1.5 4.4375 -2.09375 C 4.28125 -2.6875 4.15625 -3.179688 4.0625 -3.578125 C 3.957031 -4.046875 3.875 -4.445312 3.8125 -4.78125 L 2.171875 -4.78125 C 2.171875 -4.40625 2.175781 -4.015625 2.1875 -3.609375 C 2.195312 -3.210938 2.207031 -2.8125 2.21875 -2.40625 C 2.226562 -2.007812 2.238281 -1.601562 2.25 -1.1875 C 2.269531 -0.78125 2.289062 -0.382812 2.3125 0 L 0.8125 0 C 0.84375 -0.457031 0.863281 -0.925781 0.875 -1.40625 C 0.894531 -1.882812 0.910156 -2.359375 0.921875 -2.828125 C 0.929688 -3.304688 0.9375 -3.773438 0.9375 -4.234375 C 0.945312 -4.691406 0.953125 -5.128906 0.953125 -5.546875 C 0.953125 -5.953125 0.945312 -6.382812 0.9375 -6.84375 C 0.9375 -7.300781 0.929688 -7.765625 0.921875 -8.234375 C 0.910156 -8.710938 0.894531 -9.191406 0.875 -9.671875 C 0.863281 -10.148438 0.84375 -10.613281 0.8125 -11.0625 Z M 2.265625 -10.171875 C 2.234375 -9.398438 2.207031 -8.628906 2.1875 -7.859375 C 2.175781 -7.085938 2.171875 -6.363281 2.171875 -5.6875 L 3.359375 -5.6875 C 3.597656 -5.6875 3.8125 -5.722656 4 -5.796875 C 4.1875 -5.867188 4.34375 -5.988281 4.46875 -6.15625 C 4.601562 -6.332031 4.703125 -6.554688 4.765625 -6.828125 C 4.835938 -7.109375 4.875 -7.453125 4.875 -7.859375 C 4.875 -8.671875 4.742188 -9.257812 4.484375 -9.625 C 4.234375 -9.988281 3.859375 -10.171875 3.359375 -10.171875 Z M 2.265625 -10.171875 "/></g></g></g><g fill="#e76f51" fill-opacity="1"><g transform="translate(21.702521, 75.917266)"><g><path d="M 5.484375 -11.0625 L 5.484375 -10.125 L 2.265625 -10.125 C 2.234375 -9.507812 2.210938 -8.894531 2.203125 -8.28125 C 2.191406 -7.664062 2.179688 -7.066406 2.171875 -6.484375 L 5.25 -6.484375 L 5.25 -5.546875 L 2.171875 -5.546875 C 2.171875 -4.847656 2.175781 -4.101562 2.1875 -3.3125 C 2.195312 -2.519531 2.222656 -1.726562 2.265625 -0.9375 L 5.53125 -0.9375 L 5.53125 0 L 0.8125 0 C 0.84375 -0.457031 0.863281 -0.925781 0.875 -1.40625 C 0.894531 -1.882812 0.910156 -2.359375 0.921875 -2.828125 C 0.929688 -3.304688 0.9375 -3.773438 0.9375 -4.234375 C 0.945312 -4.691406 0.953125 -5.128906 0.953125 -5.546875 C 0.953125 -5.953125 0.945312 -6.382812 0.9375 -6.84375 C 0.9375 -7.300781 0.929688 -7.765625 0.921875 -8.234375 C 0.910156 -8.710938 0.894531 -9.191406 0.875 -9.671875 C 0.863281 -10.148438 0.84375 -10.613281 0.8125 -11.0625 Z M 5.484375 -11.0625 "/></g></g></g><g fill="#e76f51" fill-opacity="1"><g transform="translate(28.055794, 75.917266)"><g><path d="M 6.859375 -11.0625 C 6.828125 -10.613281 6.800781 -10.148438 6.78125 -9.671875 C 6.757812 -9.191406 6.742188 -8.710938 6.734375 -8.234375 C 6.722656 -7.765625 6.710938 -7.300781 6.703125 -6.84375 C 6.703125 -6.382812 6.703125 -5.953125 6.703125 -5.546875 C 6.703125 -5.128906 6.703125 -4.691406 6.703125 -4.234375 C 6.710938 -3.773438 6.722656 -3.304688 6.734375 -2.828125 C 6.742188 -2.359375 6.753906 -1.882812 6.765625 -1.40625 C 6.785156 -0.925781 6.8125 -0.457031 6.84375 0 L 5.34375 0 C 5.070312 -0.789062 4.804688 -1.539062 4.546875 -2.25 C 4.285156 -2.96875 4.023438 -3.660156 3.765625 -4.328125 C 3.503906 -4.992188 3.242188 -5.644531 2.984375 -6.28125 C 2.722656 -6.925781 2.460938 -7.5625 2.203125 -8.1875 L 2.15625 -8.1875 C 2.144531 -7.71875 2.140625 -7.257812 2.140625 -6.8125 C 2.140625 -6.375 2.140625 -5.953125 2.140625 -5.546875 C 2.140625 -5.128906 2.140625 -4.691406 2.140625 -4.234375 C 2.148438 -3.773438 2.160156 -3.304688 2.171875 -2.828125 C 2.179688 -2.359375 2.191406 -1.882812 2.203125 -1.40625 C 2.222656 -0.925781 2.25 -0.457031 2.28125 0 L 0.8125 0 C 0.84375 -0.457031 0.863281 -0.925781 0.875 -1.40625 C 0.894531 -1.882812 0.910156 -2.359375 0.921875 -2.828125 C 0.929688 -3.304688 0.9375 -3.773438 0.9375 -4.234375 C 0.945312 -4.691406 0.953125 -5.128906 0.953125 -5.546875 C 0.953125 -5.953125 0.945312 -6.382812 0.9375 -6.84375 C 0.9375 -7.300781 0.929688 -7.765625 0.921875 -8.234375 C 0.910156 -8.710938 0.894531 -9.191406 0.875 -9.671875 C 0.863281 -10.148438 0.84375 -10.613281 0.8125 -11.0625 L 2.3125 -11.0625 C 2.851562 -9.488281 3.382812 -8 3.90625 -6.59375 C 4.425781 -5.195312 4.945312 -3.867188 5.46875 -2.609375 L 5.53125 -2.609375 C 5.53125 -2.847656 5.53125 -3.09375 5.53125 -3.34375 C 5.53125 -3.601562 5.53125 -3.859375 5.53125 -4.109375 C 5.53125 -4.367188 5.523438 -4.617188 5.515625 -4.859375 C 5.515625 -5.109375 5.515625 -5.335938 5.515625 -5.546875 C 5.515625 -5.953125 5.507812 -6.382812 5.5 -6.84375 C 5.5 -7.300781 5.492188 -7.765625 5.484375 -8.234375 C 5.472656 -8.710938 5.457031 -9.191406 5.4375 -9.671875 C 5.425781 -10.148438 5.398438 -10.613281 5.359375 -11.0625 Z M 6.859375 -11.0625 "/></g></g></g><g fill="#e76f51" fill-opacity="1"><g transform="translate(35.915658, 75.917266)"><g><path d="M 0.125 -11.0625 L 5.640625 -11.0625 L 5.640625 -10.125 L 3.578125 -10.125 C 3.535156 -9.332031 3.507812 -8.539062 3.5 -7.75 C 3.488281 -6.96875 3.484375 -6.234375 3.484375 -5.546875 C 3.484375 -5.128906 3.484375 -4.691406 3.484375 -4.234375 C 3.492188 -3.773438 3.503906 -3.304688 3.515625 -2.828125 C 3.523438 -2.359375 3.535156 -1.882812 3.546875 -1.40625 C 3.566406 -0.925781 3.59375 -0.457031 3.625 0 L 2.125 0 C 2.15625 -0.457031 2.175781 -0.925781 2.1875 -1.40625 C 2.207031 -1.882812 2.222656 -2.359375 2.234375 -2.828125 C 2.242188 -3.304688 2.25 -3.773438 2.25 -4.234375 C 2.257812 -4.691406 2.265625 -5.128906 2.265625 -5.546875 C 2.265625 -6.234375 2.257812 -6.96875 2.25 -7.75 C 2.238281 -8.539062 2.210938 -9.332031 2.171875 -10.125 L 0.125 -10.125 Z M 0.125 -11.0625 "/></g></g></g><g fill="#e76f51" fill-opacity="1"><g transform="translate(41.874155, 75.917266)"><g/></g></g><g fill="#e76f51" fill-opacity="1"><g transform="translate(45.294811, 75.917266)"><g><path d="M 6.859375 -11.0625 C 6.835938 -10.613281 6.816406 -10.148438 6.796875 -9.671875 C 6.773438 -9.191406 6.757812 -8.710938 6.75 -8.234375 C 6.738281 -7.765625 6.726562 -7.300781 6.71875 -6.84375 C 6.71875 -6.382812 6.71875 -5.953125 6.71875 -5.546875 C 6.71875 -5.128906 6.71875 -4.691406 6.71875 -4.234375 C 6.726562 -3.773438 6.738281 -3.304688 6.75 -2.828125 C 6.757812 -2.359375 6.769531 -1.882812 6.78125 -1.40625 C 6.800781 -0.925781 6.820312 -0.457031 6.84375 0 L 5.34375 0 C 5.375 -0.457031 5.398438 -0.925781 5.421875 -1.40625 C 5.441406 -1.882812 5.457031 -2.359375 5.46875 -2.828125 C 5.476562 -3.304688 5.484375 -3.773438 5.484375 -4.234375 C 5.492188 -4.691406 5.5 -5.128906 5.5 -5.546875 L 2.171875 -5.546875 C 2.171875 -5.128906 2.171875 -4.691406 2.171875 -4.234375 C 2.179688 -3.773438 2.191406 -3.304688 2.203125 -2.828125 C 2.210938 -2.359375 2.222656 -1.882812 2.234375 -1.40625 C 2.253906 -0.925781 2.28125 -0.457031 2.3125 0 L 0.8125 0 C 0.84375 -0.457031 0.863281 -0.925781 0.875 -1.40625 C 0.894531 -1.882812 0.910156 -2.359375 0.921875 -2.828125 C 0.929688 -3.304688 0.9375 -3.773438 0.9375 -4.234375 C 0.945312 -4.691406 0.953125 -5.128906 0.953125 -5.546875 C 0.953125 -5.953125 0.945312 -6.382812 0.9375 -6.84375 C 0.9375 -7.300781 0.929688 -7.765625 0.921875 -8.234375 C 0.910156 -8.710938 0.894531 -9.191406 0.875 -9.671875 C 0.863281 -10.148438 0.84375 -10.613281 0.8125 -11.0625 L 2.328125 -11.0625 C 2.273438 -10.3125 2.238281 -9.539062 2.21875 -8.75 C 2.195312 -7.96875 2.179688 -7.210938 2.171875 -6.484375 L 5.484375 -6.484375 C 5.484375 -7.210938 5.472656 -7.96875 5.453125 -8.75 C 5.429688 -9.539062 5.394531 -10.3125 5.34375 -11.0625 Z M 6.859375 -11.0625 "/></g></g></g><g fill="#e76f51" fill-opacity="1"><g transform="translate(53.170789, 75.917266)"><g><path d="M 5.484375 -11.0625 L 5.484375 -10.125 L 2.265625 -10.125 C 2.234375 -9.507812 2.210938 -8.894531 2.203125 -8.28125 C 2.191406 -7.664062 2.179688 -7.066406 2.171875 -6.484375 L 5.25 -6.484375 L 5.25 -5.546875 L 2.171875 -5.546875 C 2.171875 -4.847656 2.175781 -4.101562 2.1875 -3.3125 C 2.195312 -2.519531 2.222656 -1.726562 2.265625 -0.9375 L 5.53125 -0.9375 L 5.53125 0 L 0.8125 0 C 0.84375 -0.457031 0.863281 -0.925781 0.875 -1.40625 C 0.894531 -1.882812 0.910156 -2.359375 0.921875 -2.828125 C 0.929688 -3.304688 0.9375 -3.773438 0.9375 -4.234375 C 0.945312 -4.691406 0.953125 -5.128906 0.953125 -5.546875 C 0.953125 -5.953125 0.945312 -6.382812 0.9375 -6.84375 C 0.9375 -7.300781 0.929688 -7.765625 0.921875 -8.234375 C 0.910156 -8.710938 0.894531 -9.191406 0.875 -9.671875 C 0.863281 -10.148438 0.84375 -10.613281 0.8125 -11.0625 Z M 5.484375 -11.0625 "/></g></g></g><g fill="#e76f51" fill-opacity="1"><g transform="translate(59.524062, 75.917266)"><g><path d="M 2.328125 -11.0625 C 2.296875 -10.613281 2.269531 -10.148438 2.25 -9.671875 C 2.226562 -9.191406 2.210938 -8.710938 2.203125 -8.234375 C 2.191406 -7.765625 2.179688 -7.300781 2.171875 -6.84375 C 2.171875 -6.382812 2.171875 -5.953125 2.171875 -5.546875 C 2.171875 -4.847656 2.175781 -4.101562 2.1875 -3.3125 C 2.195312 -2.519531 2.222656 -1.726562 2.265625 -0.9375 L 5.53125 -0.9375 L 5.53125 0 L 0.8125 0 C 0.84375 -0.457031 0.863281 -0.925781 0.875 -1.40625 C 0.894531 -1.882812 0.910156 -2.359375 0.921875 -2.828125 C 0.929688 -3.304688 0.9375 -3.773438 0.9375 -4.234375 C 0.945312 -4.691406 0.953125 -5.128906 0.953125 -5.546875 C 0.953125 -5.953125 0.945312 -6.382812 0.9375 -6.84375 C 0.9375 -7.300781 0.929688 -7.765625 0.921875 -8.234375 C 0.910156 -8.710938 0.894531 -9.191406 0.875 -9.671875 C 0.863281 -10.148438 0.84375 -10.613281 0.8125 -11.0625 Z M 2.328125 -11.0625 "/></g></g></g><g fill="#e76f51" fill-opacity="1"><g transform="translate(65.329483, 75.917266)"><g><path d="M 3.5 -11.0625 C 3.945312 -11.0625 4.347656 -10.984375 4.703125 -10.828125 C 5.054688 -10.679688 5.351562 -10.457031 5.59375 -10.15625 C 5.84375 -9.863281 6.03125 -9.503906 6.15625 -9.078125 C 6.28125 -8.660156 6.34375 -8.179688 6.34375 -7.640625 C 6.34375 -7.410156 6.320312 -7.164062 6.28125 -6.90625 C 6.238281 -6.644531 6.171875 -6.390625 6.078125 -6.140625 C 5.984375 -5.890625 5.859375 -5.644531 5.703125 -5.40625 C 5.554688 -5.175781 5.375 -4.972656 5.15625 -4.796875 C 4.9375 -4.617188 4.679688 -4.476562 4.390625 -4.375 C 4.109375 -4.269531 3.785156 -4.21875 3.421875 -4.21875 L 2.171875 -4.21875 C 2.179688 -3.53125 2.195312 -2.828125 2.21875 -2.109375 C 2.238281 -1.390625 2.269531 -0.6875 2.3125 0 L 0.8125 0 C 0.84375 -0.457031 0.863281 -0.925781 0.875 -1.40625 C 0.894531 -1.882812 0.910156 -2.359375 0.921875 -2.828125 C 0.929688 -3.304688 0.9375 -3.773438 0.9375 -4.234375 C 0.945312 -4.691406 0.953125 -5.128906 0.953125 -5.546875 C 0.953125 -5.953125 0.945312 -6.382812 0.9375 -6.84375 C 0.9375 -7.300781 0.929688 -7.765625 0.921875 -8.234375 C 0.910156 -8.710938 0.894531 -9.191406 0.875 -9.671875 C 0.863281 -10.148438 0.84375 -10.613281 0.8125 -11.0625 Z M 2.265625 -10.171875 C 2.234375 -9.367188 2.207031 -8.570312 2.1875 -7.78125 C 2.175781 -6.988281 2.171875 -6.242188 2.171875 -5.546875 L 2.171875 -5.109375 L 3.421875 -5.109375 C 3.898438 -5.109375 4.273438 -5.328125 4.546875 -5.765625 C 4.816406 -6.210938 4.953125 -6.835938 4.953125 -7.640625 C 4.953125 -8.460938 4.820312 -9.085938 4.5625 -9.515625 C 4.3125 -9.953125 3.929688 -10.171875 3.421875 -10.171875 Z M 2.265625 -10.171875 "/></g></g></g><g fill="#e76f51" fill-opacity="1"><g transform="translate(72.278947, 75.917266)"><g><path d="M 5.484375 -11.0625 L 5.484375 -10.125 L 2.265625 -10.125 C 2.234375 -9.507812 2.210938 -8.894531 2.203125 -8.28125 C 2.191406 -7.664062 2.179688 -7.066406 2.171875 -6.484375 L 5.25 -6.484375 L 5.25 -5.546875 L 2.171875 -5.546875 C 2.171875 -4.847656 2.175781 -4.101562 2.1875 -3.3125 C 2.195312 -2.519531 2.222656 -1.726562 2.265625 -0.9375 L 5.53125 -0.9375 L 5.53125 0 L 0.8125 0 C 0.84375 -0.457031 0.863281 -0.925781 0.875 -1.40625 C 0.894531 -1.882812 0.910156 -2.359375 0.921875 -2.828125 C 0.929688 -3.304688 0.9375 -3.773438 0.9375 -4.234375 C 0.945312 -4.691406 0.953125 -5.128906 0.953125 -5.546875 C 0.953125 -5.953125 0.945312 -6.382812 0.9375 -6.84375 C 0.9375 -7.300781 0.929688 -7.765625 0.921875 -8.234375 C 0.910156 -8.710938 0.894531 -9.191406 0.875 -9.671875 C 0.863281 -10.148438 0.84375 -10.613281 0.8125 -11.0625 Z M 5.484375 -11.0625 "/></g></g></g><g fill="#e76f51" fill-opacity="1"><g transform="translate(78.63222, 75.917266)"><g><path d="M 3.4375 -11.0625 C 4.34375 -11.0625 5.039062 -10.796875 5.53125 -10.265625 C 6.03125 -9.734375 6.28125 -8.929688 6.28125 -7.859375 C 6.28125 -7.160156 6.160156 -6.582031 5.921875 -6.125 C 5.679688 -5.675781 5.320312 -5.328125 4.84375 -5.078125 C 4.96875 -4.617188 5.117188 -4.117188 5.296875 -3.578125 C 5.453125 -3.109375 5.644531 -2.566406 5.875 -1.953125 C 6.113281 -1.347656 6.398438 -0.695312 6.734375 0 L 5.03125 0 C 4.789062 -0.800781 4.59375 -1.5 4.4375 -2.09375 C 4.28125 -2.6875 4.15625 -3.179688 4.0625 -3.578125 C 3.957031 -4.046875 3.875 -4.445312 3.8125 -4.78125 L 2.171875 -4.78125 C 2.171875 -4.40625 2.175781 -4.015625 2.1875 -3.609375 C 2.195312 -3.210938 2.207031 -2.8125 2.21875 -2.40625 C 2.226562 -2.007812 2.238281 -1.601562 2.25 -1.1875 C 2.269531 -0.78125 2.289062 -0.382812 2.3125 0 L 0.8125 0 C 0.84375 -0.457031 0.863281 -0.925781 0.875 -1.40625 C 0.894531 -1.882812 0.910156 -2.359375 0.921875 -2.828125 C 0.929688 -3.304688 0.9375 -3.773438 0.9375 -4.234375 C 0.945312 -4.691406 0.953125 -5.128906 0.953125 -5.546875 C 0.953125 -5.953125 0.945312 -6.382812 0.9375 -6.84375 C 0.9375 -7.300781 0.929688 -7.765625 0.921875 -8.234375 C 0.910156 -8.710938 0.894531 -9.191406 0.875 -9.671875 C 0.863281 -10.148438 0.84375 -10.613281 0.8125 -11.0625 Z M 2.265625 -10.171875 C 2.234375 -9.398438 2.207031 -8.628906 2.1875 -7.859375 C 2.175781 -7.085938 2.171875 -6.363281 2.171875 -5.6875 L 3.359375 -5.6875 C 3.597656 -5.6875 3.8125 -5.722656 4 -5.796875 C 4.1875 -5.867188 4.34375 -5.988281 4.46875 -6.15625 C 4.601562 -6.332031 4.703125 -6.554688 4.765625 -6.828125 C 4.835938 -7.109375 4.875 -7.453125 4.875 -7.859375 C 4.875 -8.671875 4.742188 -9.257812 4.484375 -9.625 C 4.234375 -9.988281 3.859375 -10.171875 3.359375 -10.171875 Z M 2.265625 -10.171875 "/></g></g></g><g fill="#e76f51" fill-opacity="1"><g transform="translate(85.646137, 75.917266)"><g/></g></g><g fill="#e76f51" fill-opacity="1"><g transform="translate(89.066793, 75.917266)"><g><path d="M 6.859375 -11.0625 C 6.835938 -10.613281 6.816406 -10.148438 6.796875 -9.671875 C 6.773438 -9.191406 6.757812 -8.710938 6.75 -8.234375 C 6.738281 -7.765625 6.726562 -7.300781 6.71875 -6.84375 C 6.71875 -6.382812 6.71875 -5.953125 6.71875 -5.546875 C 6.71875 -5.128906 6.71875 -4.691406 6.71875 -4.234375 C 6.726562 -3.773438 6.738281 -3.304688 6.75 -2.828125 C 6.757812 -2.359375 6.769531 -1.882812 6.78125 -1.40625 C 6.800781 -0.925781 6.820312 -0.457031 6.84375 0 L 5.34375 0 C 5.375 -0.457031 5.398438 -0.925781 5.421875 -1.40625 C 5.441406 -1.882812 5.457031 -2.359375 5.46875 -2.828125 C 5.476562 -3.304688 5.484375 -3.773438 5.484375 -4.234375 C 5.492188 -4.691406 5.5 -5.128906 5.5 -5.546875 L 2.171875 -5.546875 C 2.171875 -5.128906 2.171875 -4.691406 2.171875 -4.234375 C 2.179688 -3.773438 2.191406 -3.304688 2.203125 -2.828125 C 2.210938 -2.359375 2.222656 -1.882812 2.234375 -1.40625 C 2.253906 -0.925781 2.28125 -0.457031 2.3125 0 L 0.8125 0 C 0.84375 -0.457031 0.863281 -0.925781 0.875 -1.40625 C 0.894531 -1.882812 0.910156 -2.359375 0.921875 -2.828125 C 0.929688 -3.304688 0.9375 -3.773438 0.9375 -4.234375 C 0.945312 -4.691406 0.953125 -5.128906 0.953125 -5.546875 C 0.953125 -5.953125 0.945312 -6.382812 0.9375 -6.84375 C 0.9375 -7.300781 0.929688 -7.765625 0.921875 -8.234375 C 0.910156 -8.710938 0.894531 -9.191406 0.875 -9.671875 C 0.863281 -10.148438 0.84375 -10.613281 0.8125 -11.0625 L 2.328125 -11.0625 C 2.273438 -10.3125 2.238281 -9.539062 2.21875 -8.75 C 2.195312 -7.96875 2.179688 -7.210938 2.171875 -6.484375 L 5.484375 -6.484375 C 5.484375 -7.210938 5.472656 -7.96875 5.453125 -8.75 C 5.429688 -9.539062 5.394531 -10.3125 5.34375 -11.0625 Z M 6.859375 -11.0625 "/></g></g></g><g fill="#e76f51" fill-opacity="1"><g transform="translate(96.942765, 75.917266)"><g><path d="M 3.875 -0.765625 C 4.164062 -0.765625 4.421875 -0.820312 4.640625 -0.9375 C 4.867188 -1.0625 5.054688 -1.234375 5.203125 -1.453125 C 5.347656 -1.671875 5.453125 -1.9375 5.515625 -2.25 C 5.585938 -2.570312 5.625 -2.929688 5.625 -3.328125 L 5.625 -5.9375 C 5.625 -6.75 5.613281 -7.585938 5.59375 -8.453125 C 5.582031 -9.316406 5.546875 -10.1875 5.484375 -11.0625 L 7 -11.0625 C 6.945312 -10.175781 6.910156 -9.300781 6.890625 -8.4375 C 6.867188 -7.570312 6.859375 -6.738281 6.859375 -5.9375 L 6.859375 -3.328125 C 6.859375 -2.773438 6.796875 -2.273438 6.671875 -1.828125 C 6.546875 -1.390625 6.359375 -1.019531 6.109375 -0.71875 C 5.867188 -0.414062 5.5625 -0.179688 5.1875 -0.015625 C 4.8125 0.148438 4.375 0.234375 3.875 0.234375 C 3.363281 0.234375 2.921875 0.148438 2.546875 -0.015625 C 2.171875 -0.179688 1.859375 -0.414062 1.609375 -0.71875 C 1.367188 -1.019531 1.1875 -1.390625 1.0625 -1.828125 C 0.9375 -2.273438 0.875 -2.773438 0.875 -3.328125 L 0.875 -5.9375 C 0.875 -6.738281 0.863281 -7.570312 0.84375 -8.4375 C 0.820312 -9.300781 0.785156 -10.175781 0.734375 -11.0625 L 2.25 -11.0625 C 2.1875 -10.1875 2.144531 -9.316406 2.125 -8.453125 C 2.113281 -7.585938 2.109375 -6.75 2.109375 -5.9375 L 2.109375 -3.328125 C 2.109375 -2.929688 2.140625 -2.570312 2.203125 -2.25 C 2.273438 -1.9375 2.382812 -1.671875 2.53125 -1.453125 C 2.675781 -1.234375 2.859375 -1.0625 3.078125 -0.9375 C 3.304688 -0.820312 3.570312 -0.765625 3.875 -0.765625 Z M 3.875 -0.765625 "/></g></g></g><g fill="#e76f51" fill-opacity="1"><g transform="translate(104.875145, 75.917266)"><g><path d="M 3.28125 -11.0625 C 3.71875 -11.0625 4.109375 -11.007812 4.453125 -10.90625 C 4.804688 -10.800781 5.109375 -10.640625 5.359375 -10.421875 C 5.617188 -10.210938 5.816406 -9.9375 5.953125 -9.59375 C 6.085938 -9.25 6.15625 -8.835938 6.15625 -8.359375 C 6.15625 -7.984375 6.113281 -7.648438 6.03125 -7.359375 C 5.945312 -7.078125 5.835938 -6.835938 5.703125 -6.640625 C 5.566406 -6.441406 5.410156 -6.28125 5.234375 -6.15625 C 5.054688 -6.039062 4.867188 -5.957031 4.671875 -5.90625 C 4.910156 -5.863281 5.140625 -5.773438 5.359375 -5.640625 C 5.585938 -5.515625 5.785156 -5.332031 5.953125 -5.09375 C 6.128906 -4.863281 6.265625 -4.578125 6.359375 -4.234375 C 6.460938 -3.898438 6.515625 -3.503906 6.515625 -3.046875 C 6.515625 -2.578125 6.460938 -2.15625 6.359375 -1.78125 C 6.253906 -1.40625 6.085938 -1.082031 5.859375 -0.8125 C 5.628906 -0.550781 5.332031 -0.347656 4.96875 -0.203125 C 4.613281 -0.0664062 4.175781 0 3.65625 0 L 0.8125 0 C 0.84375 -0.457031 0.863281 -0.925781 0.875 -1.40625 C 0.894531 -1.882812 0.910156 -2.359375 0.921875 -2.828125 C 0.929688 -3.304688 0.9375 -3.773438 0.9375 -4.234375 C 0.945312 -4.691406 0.953125 -5.128906 0.953125 -5.546875 C 0.953125 -5.953125 0.945312 -6.382812 0.9375 -6.84375 C 0.9375 -7.300781 0.929688 -7.765625 0.921875 -8.234375 C 0.910156 -8.710938 0.894531 -9.191406 0.875 -9.671875 C 0.863281 -10.148438 0.84375 -10.613281 0.8125 -11.0625 Z M 2.171875 -5.390625 C 2.171875 -4.710938 2.175781 -3.988281 2.1875 -3.21875 C 2.207031 -2.457031 2.234375 -1.691406 2.265625 -0.921875 L 3.578125 -0.921875 C 3.816406 -0.921875 4.03125 -0.957031 4.21875 -1.03125 C 4.414062 -1.113281 4.582031 -1.242188 4.71875 -1.421875 C 4.851562 -1.609375 4.953125 -1.847656 5.015625 -2.140625 C 5.085938 -2.441406 5.125 -2.804688 5.125 -3.234375 C 5.125 -3.648438 5.085938 -3.992188 5.015625 -4.265625 C 4.941406 -4.546875 4.832031 -4.769531 4.6875 -4.9375 C 4.539062 -5.101562 4.367188 -5.21875 4.171875 -5.28125 C 3.972656 -5.351562 3.753906 -5.390625 3.515625 -5.390625 Z M 2.265625 -10.15625 C 2.234375 -9.5 2.210938 -8.84375 2.203125 -8.1875 C 2.191406 -7.539062 2.179688 -6.914062 2.171875 -6.3125 L 3.390625 -6.3125 C 3.648438 -6.3125 3.867188 -6.347656 4.046875 -6.421875 C 4.222656 -6.492188 4.363281 -6.601562 4.46875 -6.75 C 4.582031 -6.894531 4.660156 -7.082031 4.703125 -7.3125 C 4.753906 -7.539062 4.78125 -7.816406 4.78125 -8.140625 C 4.78125 -8.441406 4.757812 -8.71875 4.71875 -8.96875 C 4.675781 -9.21875 4.597656 -9.429688 4.484375 -9.609375 C 4.378906 -9.785156 4.238281 -9.921875 4.0625 -10.015625 C 3.882812 -10.109375 3.660156 -10.15625 3.390625 -10.15625 Z M 2.265625 -10.15625 "/></g></g></g></svg>