<svg xmlns="http://www.w3.org/2000/svg" xmlns:xlink="http://www.w3.org/1999/xlink" width="500" zoomAndPan="magnify" viewBox="0 0 375 374.999991" height="500" preserveAspectRatio="xMidYMid meet" version="1.0"><defs><clipPath id="7db40d6c7a"><path d="M 57 69 L 318 69 L 318 305.890625 L 57 305.890625 Z M 57 69 " clip-rule="nonzero"/></clipPath></defs><g clip-path="url(#7db40d6c7a)"><path fill="#e76f51" d="M 278.871094 293.996094 C 252.769531 291.828125 219.511719 283.910156 198.421875 270.738281 C 200.863281 269.367188 204.238281 267.367188 208.265625 264.714844 C 216.179688 259.5 227.546875 251.117188 236.785156 240.785156 C 240.777344 236.320312 244.015625 231.269531 246.417969 225.765625 C 248.8125 220.277344 250.316406 214.464844 250.886719 208.5 C 251.070312 206.582031 251.1875 204.871094 251.226562 203.417969 C 251.375 198.140625 250.433594 192.964844 248.433594 188.039062 C 246.519531 183.328125 243.738281 179.078125 240.160156 175.398438 C 236.585938 171.722656 232.417969 168.820312 227.773438 166.777344 C 222.90625 164.640625 217.765625 163.554688 212.488281 163.554688 L 212.367188 163.554688 C 203.1875 163.585938 194.367188 166.84375 187.429688 172.753906 C 180.460938 166.816406 171.59375 163.554688 162.363281 163.554688 C 158.410156 163.554688 154.421875 164.15625 150.519531 165.332031 C 144.59375 167.125 139.144531 170.402344 134.757812 174.8125 C 130.375 179.21875 127.121094 184.679688 125.351562 190.613281 C 124.6875 192.832031 124.214844 195.390625 123.941406 198.214844 C 122.371094 214.324219 127.992188 230.460938 139.367188 242.480469 C 148.671875 252.316406 159.824219 260.273438 167.542969 265.21875 C 171.210938 267.566406 174.308594 269.371094 176.628906 270.660156 C 155.546875 283.875 122.207031 291.820312 96.050781 293.996094 L 96.050781 161.746094 L 105.992188 153.257812 L 119.773438 141.496094 L 188.054688 83.203125 L 247.972656 139.226562 L 250.398438 141.496094 L 262.980469 153.257812 L 263.441406 153.691406 L 278.871094 168.117188 Z M 188.472656 262.085938 C 188.246094 262.109375 188.007812 262.136719 187.777344 262.164062 C 187.683594 262.175781 187.578125 262.1875 187.464844 262.199219 L 187.460938 262.199219 C 187.347656 262.1875 187.238281 262.175781 187.144531 262.164062 C 187.070312 262.15625 187 262.148438 186.925781 262.140625 C 184.519531 260.980469 179.566406 258.316406 173.460938 254.367188 C 166.542969 249.890625 156.5625 242.730469 148.3125 234.011719 C 139.390625 224.578125 134.976562 211.96875 136.199219 199.410156 C 136.398438 197.375 136.722656 195.597656 137.15625 194.136719 C 139.597656 185.953125 145.925781 179.597656 154.082031 177.132812 C 156.828125 176.300781 159.617188 175.882812 162.363281 175.882812 C 171.351562 175.882812 179.644531 180.398438 184.550781 187.96875 C 185.1875 188.949219 186.261719 189.53125 187.425781 189.53125 C 188.59375 189.53125 189.671875 188.945312 190.308594 187.964844 C 195.191406 180.425781 203.453125 175.910156 212.402344 175.882812 L 212.488281 175.882812 C 219.453125 175.882812 226.320312 178.835938 231.332031 183.992188 C 236.34375 189.148438 239.105469 196.105469 238.910156 203.074219 C 238.878906 204.242188 238.78125 205.671875 238.625 207.328125 C 237.734375 216.652344 233.820312 225.613281 227.601562 232.570312 C 219.445312 241.695312 209.304688 249.222656 202.238281 253.929688 C 196.027344 258.066406 190.964844 260.855469 188.472656 262.085938 Z M 187.648438 262.476562 C 187.554688 262.433594 187.449219 262.386719 187.339844 262.335938 C 187.378906 262.328125 187.417969 262.324219 187.457031 262.320312 C 187.589844 262.335938 187.722656 262.355469 187.855469 262.382812 C 187.785156 262.414062 187.714844 262.449219 187.648438 262.476562 Z M 315.691406 186.445312 L 290.628906 163.007812 L 271.46875 145.097656 C 271.480469 144.921875 271.484375 144.742188 271.484375 144.5625 L 271.484375 112.265625 C 271.484375 109.28125 269.0625 106.859375 266.078125 106.859375 L 253.375 106.859375 C 250.390625 106.859375 247.972656 109.28125 247.972656 112.265625 L 247.972656 123.125 L 192.246094 71.023438 C 190.058594 68.980469 186.691406 68.90625 184.417969 70.847656 L 101.660156 141.496094 L 84.296875 156.320312 L 59.207031 177.738281 C 56.738281 179.847656 56.441406 183.5625 58.550781 186.03125 C 60.65625 188.503906 64.367188 188.796875 66.835938 186.6875 L 84.296875 171.78125 L 84.296875 300 C 84.296875 303.246094 86.929688 305.878906 90.175781 305.878906 L 94.277344 305.878906 C 94.277344 305.878906 95.683594 305.824219 96.050781 305.796875 C 112.386719 304.511719 130.6875 301.082031 146.570312 296.316406 C 156.21875 293.417969 164.976562 290.054688 172.613281 286.3125 C 178.167969 283.589844 183.132812 280.65625 187.460938 277.554688 C 189.625 279.105469 191.949219 280.617188 194.425781 282.078125 C 196.902344 283.539062 199.53125 284.953125 202.3125 286.3125 C 209.941406 290.054688 218.703125 293.417969 228.351562 296.316406 C 244.230469 301.082031 262.535156 304.511719 278.871094 305.796875 C 279.238281 305.824219 280.640625 305.878906 280.640625 305.878906 L 284.75 305.878906 C 287.996094 305.878906 290.628906 303.246094 290.628906 300 L 290.628906 179.109375 L 307.664062 195.039062 C 308.796875 196.097656 310.238281 196.621094 311.675781 196.621094 C 313.246094 196.621094 314.8125 195.996094 315.972656 194.757812 C 318.1875 192.382812 318.0625 188.660156 315.691406 186.445312 " fill-opacity="1" fill-rule="nonzero"/></g></svg>